<svg xmlns="http://www.w3.org/2000/svg" xmlns:xlink="http://www.w3.org/1999/xlink" viewBox="0 0 190 190"><defs><style>.cls-1{opacity:0.41;fill:url(#radial-gradient);}.cls-2{fill:#5cc5ff;}.cls-3{fill:#50ba11;}</style><radialGradient id="radial-gradient" cx="93.06" cy="93.49" r="86.94" gradientUnits="userSpaceOnUse"><stop offset="0" stop-color="#595959"/><stop offset="1"/></radialGradient></defs><g id="Layer_2" data-name="Layer 2"><g id="Layer_1-2" data-name="Layer 1"><rect class="cls-1" x="6.12" y="6.55" width="173.88" height="173.88"/><path class="cls-2" d="M168.91,0H21.08A21.11,21.11,0,0,0,0,21.08V168.91A21.11,21.11,0,0,0,21.08,190H168.91A21.11,21.11,0,0,0,190,168.91V21.08A21.11,21.11,0,0,0,168.91,0ZM180,159.79,159.78,180H30.21L10,159.79V30.21L30.21,10H159.78L180,30.21Z"/><path class="cls-3" d="M121.36,70.9l-7.24-13a4.83,4.83,0,0,0-4.23-2.49H80.1a4.83,4.83,0,0,0-4.23,2.49l-7.24,13a4.83,4.83,0,0,1-4.23,2.5H48.66v56.38a4.85,4.85,0,0,0,4.85,4.85h83a4.85,4.85,0,0,0,4.85-4.85V78.24a4.84,4.84,0,0,0-4.85-4.84h-10.9A4.83,4.83,0,0,1,121.36,70.9ZM96.88,118.54a18.43,18.43,0,1,1,16.44-16.43A18.44,18.44,0,0,1,96.88,118.54ZM69.65,60.83,66.25,67a4.72,4.72,0,0,1-4.13,2.44H48.72l.07-9a.79.79,0,0,1,.79-.77H69A.78.78,0,0,1,69.65,60.83ZM108,100.2a13,13,0,1,1-13-13A13,13,0,0,1,108,100.2Z"/></g></g></svg>