<svg xmlns="http://www.w3.org/2000/svg" xmlns:xlink="http://www.w3.org/1999/xlink" viewBox="0 0 190 190"><defs><style>.cls-1{opacity:0.41;fill:url(#radial-gradient);}.cls-2{fill:#5cc5ff;}.cls-3{fill:#c2fcfe;}</style><radialGradient id="radial-gradient" cx="93.06" cy="93.49" r="86.94" gradientUnits="userSpaceOnUse"><stop offset="0" stop-color="#595959"/><stop offset="1"/></radialGradient></defs><g id="Layer_2" data-name="Layer 2"><g id="Layer_1-2" data-name="Layer 1"><rect class="cls-1" x="6.12" y="6.55" width="173.88" height="173.88"/><path class="cls-2" d="M168.91,0H21.08A21.11,21.11,0,0,0,0,21.08V168.91A21.11,21.11,0,0,0,21.08,190H168.91A21.11,21.11,0,0,0,190,168.91V21.08A21.11,21.11,0,0,0,168.91,0ZM180,159.79,159.78,180H30.21L10,159.79V30.21L30.21,10H159.78L180,30.21Z"/><path class="cls-3" d="M135.89,102.25l-11.43,5a.92.92,0,0,1-.84,0l-7.71-4.44a.92.92,0,0,1-.47-.8V88a.92.92,0,0,1,.47-.8l7.71-4.44a.92.92,0,0,1,.84,0l11.43,5a.93.93,0,0,0,1.23-.48l2-4.7a.93.93,0,0,0-.48-1.23L133.27,79a.94.94,0,0,1-.09-1.67l5.18-3a.93.93,0,0,0,.34-1.27l-2.57-4.46a.93.93,0,0,0-1.27-.34l-5.63,3.24a.93.93,0,0,1-1.39-.87l.49-7.56a.93.93,0,0,0-.87-1l-5.12-.33a.93.93,0,0,0-1,.87l-.87,13.46a.92.92,0,0,1-.47.74l-7.39,4.26a1,1,0,0,1-.93,0L99.37,74a.92.92,0,0,1-.47-.8V64.47a.91.91,0,0,1,.38-.75l10-7.43a.92.92,0,0,0,.2-1.3l-3.06-4.14a.94.94,0,0,0-1.31-.19l-4.75,3.52a.93.93,0,0,1-1.49-.75v-6a.93.93,0,0,0-.93-.94H92.84a.94.94,0,0,0-.94.94V54a.93.93,0,0,1-1.45.78l-6.31-4.21a.93.93,0,0,0-1.29.26L80,55.06a.93.93,0,0,0,.26,1.29l11.23,7.48a.91.91,0,0,1,.41.77v8.15a.91.91,0,0,1-.46.8l-12.6,7.28a.94.94,0,0,1-.93,0l-7.18-4.15a1,1,0,0,1-.46-.7l-1.4-12.4a.93.93,0,0,0-1-.82l-5.11.57a.93.93,0,0,0-.82,1l.67,5.89a.94.94,0,0,1-1.4.91l-5.18-3a.93.93,0,0,0-1.27.34l-2.57,4.45a.93.93,0,0,0,.34,1.27l5.63,3.25a.94.94,0,0,1-.06,1.65l-6.8,3.35a.93.93,0,0,0-.42,1.25l2.27,4.61a.93.93,0,0,0,1.25.42l12.1-6a.92.92,0,0,1,.88,0l6.87,4a.91.91,0,0,1,.46.8V102.4a.91.91,0,0,1-.46.8l-6.88,4a.92.92,0,0,1-.88,0l-12.09-6a.93.93,0,0,0-1.25.42l-2.27,4.61a.93.93,0,0,0,.42,1.25l6.79,3.34a.94.94,0,0,1,.06,1.65l-5.62,3.25a.93.93,0,0,0-.34,1.27l2.57,4.45a.93.93,0,0,0,1.27.34l5.18-3a.94.94,0,0,1,1.4.91l-.67,5.9a.93.93,0,0,0,.82,1l5.11.57a.93.93,0,0,0,1-.82L70.27,114a1,1,0,0,1,.46-.7l7.18-4.15a.94.94,0,0,1,.93,0l12.6,7.29a.91.91,0,0,1,.46.8v8.15a.91.91,0,0,1-.41.77l-11.23,7.48a.93.93,0,0,0-.26,1.29l2.85,4.28a.93.93,0,0,0,1.29.26l6.31-4.21a.93.93,0,0,1,1.45.78v6.49a.94.94,0,0,0,.94.94H98a.93.93,0,0,0,.93-.94v-6a.93.93,0,0,1,1.49-.75l4.75,3.52a.94.94,0,0,0,1.31-.19l3.06-4.14a.92.92,0,0,0-.2-1.3l-10-7.43a.91.91,0,0,1-.38-.74v-8.69a.92.92,0,0,1,.47-.8l12.3-7.11a1,1,0,0,1,.93,0l7.4,4.26a.92.92,0,0,1,.47.74l.87,13.45a.93.93,0,0,0,1,.87l5.12-.33a.93.93,0,0,0,.87-1l-.49-7.55a.93.93,0,0,1,1.39-.87l5.63,3.24a.93.93,0,0,0,1.27-.34L138.7,117a.93.93,0,0,0-.35-1.27l-5.18-3a.94.94,0,0,1,.09-1.67l5.43-2.36a.93.93,0,0,0,.48-1.23l-2-4.71A.93.93,0,0,0,135.89,102.25ZM95.4,95h0ZM91.9,79.52v7.79a.94.94,0,0,1-1.4.81l-6.74-3.91a.93.93,0,0,1,0-1.61l6.75-3.89A.93.93,0,0,1,91.9,79.52ZM80.08,90.18l6.93,4a.93.93,0,0,1,0,1.61l-6.93,4a.93.93,0,0,1-1.4-.8V91A.93.93,0,0,1,80.08,90.18Zm3.68,15.6,6.74-3.91a.94.94,0,0,1,1.4.81v7.79a.93.93,0,0,1-1.39.81l-6.75-3.89A.93.93,0,0,1,83.76,105.78ZM100.3,79.11l6.43,3.71a.93.93,0,0,1,0,1.61l-6.43,3.71a.93.93,0,0,1-1.4-.81V79.92A.93.93,0,0,1,100.3,79.11Zm-1.4,31v-7.41a.93.93,0,0,1,1.4-.81l6.43,3.7a.93.93,0,0,1,0,1.61l-6.43,3.72A.93.93,0,0,1,98.9,110.08Zm11.15-10.69-6.23-3.58a.93.93,0,0,1,0-1.61l6.23-3.59a.93.93,0,0,1,1.39.81v7.16A.93.93,0,0,1,110.05,99.39Z"/><polygon class="cls-3" points="95.4 95 95.4 95 95.39 95 95.4 95"/><polygon class="cls-3" points="95.4 95 95.4 95 95.39 95 95.4 95"/><polygon class="cls-3" points="95.4 95 95.4 95 95.39 95 95.4 95"/></g></g></svg>