<svg xmlns="http://www.w3.org/2000/svg" xmlns:xlink="http://www.w3.org/1999/xlink" viewBox="0 0 190 190"><defs><style>.cls-1{opacity:0.41;fill:url(#radial-gradient);}.cls-2{fill:#5cc5ff;}.cls-3{fill:#f40300;}</style><radialGradient id="radial-gradient" cx="93.06" cy="93.49" r="86.94" gradientUnits="userSpaceOnUse"><stop offset="0" stop-color="#595959"/><stop offset="1"/></radialGradient></defs><g id="Layer_2" data-name="Layer 2"><g id="Layer_1-2" data-name="Layer 1"><rect class="cls-1" x="6.12" y="6.55" width="173.88" height="173.88"/><path class="cls-2" d="M168.91,0H21.08A21.11,21.11,0,0,0,0,21.08V168.91A21.11,21.11,0,0,0,21.08,190H168.91A21.11,21.11,0,0,0,190,168.91V21.08A21.11,21.11,0,0,0,168.91,0ZM180,159.79,159.78,180H30.21L10,159.79V30.21L30.21,10H159.78L180,30.21Z"/><path class="cls-3" d="M60.83,116c.12.6.23,1.2.37,1.79.26,1.2.54,2.38.8,3.58.16.75-.17,1.16-.91,1.37a7.33,7.33,0,0,1-8.44-3.72,11.34,11.34,0,0,1-1.16-5.84,6.75,6.75,0,0,1,3.44-5.42,14.58,14.58,0,0,1,2.69-1.32,1.12,1.12,0,0,0,.83-1.42c-.37-2.45-.71-4.91-1.06-7.36a79.84,79.84,0,0,1-.46-15.3,3.61,3.61,0,0,1,2-3.23c2-1.08,3.84-2.36,5.73-3.59,3.52-2.3,4.59-5.53,3.35-9.47-.72-2.29-1.69-4.5-2.62-6.72a1.43,1.43,0,0,1,0-1.47c1.47-2.36,2.9-4.75,4.38-7.12a3.1,3.1,0,0,1,3.86-1.48c2.3.69,4.63,1.31,6.91,2.08a6.32,6.32,0,0,1,4.19,4.37c.82,2.67,1.67,5.32,2.43,8a3.24,3.24,0,0,0,1.6,2,39.43,39.43,0,0,1,4,2.65c3.43,2.62,3.13,8.31,1.6,10.68a7.14,7.14,0,0,1-5.24,3.13c-4,.64-6.65-.9-8.07-4.74a18.91,18.91,0,0,0-1-2.58,3.78,3.78,0,0,0,0,.82,47.76,47.76,0,0,0,1,5.06,36.49,36.49,0,0,1,1,15c-.58,5.19.63,10.16,2.3,15a3.8,3.8,0,0,0,.39.64c-.11-.92-.18-1.6-.27-2.28-.42-3.17.71-4.86,3.82-5.66,4.44-1.14,9.09,1.75,9.76,6.07a8.53,8.53,0,0,1-5.4,8.78c-1.54.52-3.12.94-4.7,1.35a1.73,1.73,0,0,0-1.45,1.67c-.4,2.94-.91,5.88-1.41,8.81a4,4,0,0,1-.49,1c-.33-.21-.8-.35-1-.65a72.55,72.55,0,0,1-3.41-6.47,122,122,0,0,1-8.09-28.41q-.54-3.34-1.23-6.66c-.08-.37-.48-.93-.75-.94-.61,0-1,.44-1,1.12-.08,2.66-.24,5.33-.23,8,0,13.3,3.35,25.86,8.74,37.94.74,1.65,1.39,3.35,2,5.05a3,3,0,0,1-.06,1.14c-.38-.06-.87,0-1.13-.21a39.76,39.76,0,0,1-4-3.5,58,58,0,0,1-11.2-17.27c-.64-1.52-1.38-3-2.08-4.49Z"/><path class="cls-3" d="M88.73,40.32c-.24,2.21-.46,4.42-.73,6.62a6.8,6.8,0,0,1-.43,1.44,1.86,1.86,0,0,1-2,1.35A20.79,20.79,0,0,1,82,49.19a30.9,30.9,0,0,1-10.39-4.9c-3.1-2.27-3.29-3.69-.78-6.6A43,43,0,0,1,83.25,27.9a6.69,6.69,0,0,1,1-.42c1.86-.73,2.44-.47,3,1.47a39.72,39.72,0,0,1,1.32,9.94c0,.47,0,.94,0,1.41Z"/><path class="cls-3" d="M127.29,153.94a18.22,18.22,0,0,1-1.57,1.48,29.34,29.34,0,0,1-10,4.44c-9.28,2.38-17.39-.2-24.79-5.81a33.25,33.25,0,0,1-6.87-6.79c-1.84-2.51-1.19-4.41,1.76-5.43a3.45,3.45,0,0,1,4,.76c1.88,1.85,3.78,3.68,5.77,5.4s3.78,3.11,5.78,4.52c5.63,4,11.85,4.84,18.46,3.13,1.91-.49,3.77-1.15,5.66-1.71.53-.16,1.07-.25,1.6-.38Z"/><path class="cls-3" d="M153.07,151.27c-.91,1-1.74,1.92-2.6,2.82s-1.51,1.59-2.32,2.34a1.14,1.14,0,0,0-.2,1.75c.76,1.11,1.41,2.3,2.09,3.46.18.32.3.66.56,1.23a13.91,13.91,0,0,1-1.73,0,10.36,10.36,0,0,1-7.17-4.37,1.53,1.53,0,0,1-.18-1.18,12.85,12.85,0,0,0-5-14.76,1.28,1.28,0,0,1-.51-.7c-.29-2.76,2.71-7.08,5.36-7.85.23,1.53.46,3.07.71,4.6a1.67,1.67,0,0,0,1.54,1.51c1.7.28,3.39.62,5.08.94.48.09,1,.2,1.65.35l-1.74,3.12-1.74,3.1Z"/><path class="cls-3" d="M67,68.4a7.94,7.94,0,1,1-8-7.92A7.91,7.91,0,0,1,67,68.4Z"/><path class="cls-3" d="M50.91,63.75a9,9,0,0,1-2,4.48,1.46,1.46,0,0,1-1.86.42A8.84,8.84,0,0,1,43,64.76a1.71,1.71,0,0,1,.18-1.94,9.26,9.26,0,0,1,4-3,1.27,1.27,0,0,1,.64-.07C49,59.91,51,62.33,50.91,63.75Z"/><path class="cls-3" d="M96.2,78.56c0-.34,0-.46,0-.59.14-2.87.59-3.63,3.93-4.58a1.37,1.37,0,0,1,1.67.52,28,28,0,0,1,2.07,3.85,1.71,1.71,0,0,1-1,2.5,19.6,19.6,0,0,1-4.4,1.46c-1.37.26-1.84-.21-2.14-1.6A14.4,14.4,0,0,1,96.2,78.56Z"/><path class="cls-3" d="M51.78,119.86a10.71,10.71,0,0,1-.68,1.67,6.23,6.23,0,0,1-1.05,1.19c-1.55,1.44-2.23,1.51-3.88.17a17.14,17.14,0,0,1-2.33-2.41,1.75,1.75,0,0,1,0-2.26A9.23,9.23,0,0,1,47.92,115c1-.42,1.71-.27,2.21.74C50.8,117.09,51.26,118.54,51.78,119.86Z"/><path class="cls-3" d="M99.45,111.14c.2-1,.35-2,.6-2.93a1.46,1.46,0,0,1,1.72-1.13,9.17,9.17,0,0,1,5,2.18,1.85,1.85,0,0,1,.52,2.14,9.34,9.34,0,0,1-2.62,3.95,1.63,1.63,0,0,1-.93.38,4.42,4.42,0,0,1-4.15-3.82l-.06-.75Z"/><path class="cls-3" d="M130.12,148.33c.12-.66.2-1.45.4-2.19.28-1,.66-1.13,1.61-.71a8.12,8.12,0,0,1,4.31,9q-.09.36-.21.72c-.51,1.56-.79,1.68-2.23.82a8.23,8.23,0,0,1-3.63-5.68A20,20,0,0,1,130.12,148.33Z"/><path class="cls-3" d="M111.44,65.18c-2-.17-2.46-.69-1.84-2.55a20.65,20.65,0,0,1,1.87-4c.51-.87,1.06-.9,1.89-.32a8.89,8.89,0,0,1,3.16,3.86c.42,1,.23,1.54-.76,1.86C114.36,64.55,112.88,64.82,111.44,65.18Z"/><path class="cls-3" d="M44,138.11c-.19,1-.37,2.11-.61,3.2a1.06,1.06,0,0,1-1.4.89,8.68,8.68,0,0,1-4.74-2.83,1.1,1.1,0,0,1,.08-1.61,10.29,10.29,0,0,1,5.19-2.82.84.84,0,0,1,1.1.73C43.77,136.44,43.85,137.21,44,138.11Z"/><path class="cls-3" d="M45,44.45c-.16.9-.28,1.9-.51,2.87a1,1,0,0,1-1.55.8,11.12,11.12,0,0,1-4.41-2.94c-.76-.84-.73-1.42.12-2.16a9.37,9.37,0,0,1,4.54-2.11,1.14,1.14,0,0,1,1.49,1C44.82,42.73,44.89,43.54,45,44.45Z"/><path class="cls-3" d="M113.13,124.78c1.51.47,3.05.86,4.51,1.46,1.1.45,1.22,1.07.63,2.11a8.84,8.84,0,0,1-3.39,3.42c-.91.53-1.51.44-1.93-.52a25.53,25.53,0,0,1-1.55-4.48c-.33-1.46.13-1.84,1.66-1.76Z"/><path class="cls-3" d="M44.85,127.58c-1.67-.74-3.18-1.38-4.66-2.1-.22-.1-.31-.56-.38-.88a1.31,1.31,0,0,1,.12-.63c.88-2.92,2-3.31,4.38-1.46a23.11,23.11,0,0,1,2,1.88,1.1,1.1,0,0,1,.18,1.53A21.81,21.81,0,0,1,44.85,127.58Z"/><path class="cls-3" d="M39.37,58.32c.33-.41.54-.93.88-1a34.2,34.2,0,0,1,4.4-1.22c.86-.16,1.28.65,1.64,1.32A1.16,1.16,0,0,1,46.05,59c-1.24.89-2.49,1.77-3.78,2.56A1.1,1.1,0,0,1,40.56,61C40.17,60.15,39.81,59.3,39.37,58.32Z"/><path class="cls-3" d="M112.55,114.48a5.21,5.21,0,0,1-.71,1.13c-1.09.83-2.19,1.65-3.35,2.38-.88.56-1.6,0-2.26-.58a1.28,1.28,0,0,1-.19-1.85c.79-1.15,1.61-2.29,2.49-3.37a1.17,1.17,0,0,1,1.94-.06C111.18,112.88,111.84,113.68,112.55,114.48Z"/><path class="cls-3" d="M102.88,73.08c0-1.14,1.77-2.25,2.57-1.69a28.52,28.52,0,0,1,3.6,3.09,1.38,1.38,0,0,1-.07,1.33,17.08,17.08,0,0,1-2.3,2,.82.82,0,0,1-.76,0A9.28,9.28,0,0,1,102.88,73.08Z"/><path class="cls-3" d="M114.18,124.31a4.94,4.94,0,0,0-.39-.76,7.39,7.39,0,0,0-3.62-2.7c-.87-.31-1-.78-.64-1.6a4.67,4.67,0,0,1,2.78-2.37,1.49,1.49,0,0,1,1.88.64,7.85,7.85,0,0,1,.64,6.15.46.46,0,0,1-.16.23.94.94,0,0,1-.23.16Z"/><path class="cls-3" d="M40,134.67a6.39,6.39,0,0,1-1.5-4,7.48,7.48,0,0,1,.14-2.31,1.53,1.53,0,0,1,1.78-1.3,4.57,4.57,0,0,1,3.32,1.7c.38.46.52,1-.05,1.39a8.53,8.53,0,0,0-3.28,4.1C40.39,134.42,40.22,134.5,40,134.67Z"/><path class="cls-3" d="M38.45,53.34c.52-1.45,1-2.92,1.59-4.36.11-.26.5-.42.76-.62a3.53,3.53,0,0,1,.48.75,7.78,7.78,0,0,0,2.48,3.69c.74.63.77,1.19,0,1.77a7,7,0,0,1-2.24,1.13c-1.86.5-2.81-.32-2.8-2.26Z"/><path class="cls-3" d="M113,67.84a30.94,30.94,0,0,1-1.06,3.86c-.65,1.6-1.87,1.89-3.23.8A7.21,7.21,0,0,1,107,70.43c-.49-.88-.2-1.37.82-1.64a7.65,7.65,0,0,0,3.73-2.25,3.17,3.17,0,0,1,.75-.47,4.19,4.19,0,0,1,.4.79,5.76,5.76,0,0,1,.11.93Z"/></g></g></svg>