<svg xmlns="http://www.w3.org/2000/svg" xmlns:xlink="http://www.w3.org/1999/xlink" viewBox="0 0 190 190"><defs><style>.cls-1{opacity:0.41;fill:url(#radial-gradient);}.cls-2{fill:#5cc5ff;}.cls-3{fill:#8e5b11;}</style><radialGradient id="radial-gradient" cx="93.06" cy="93.49" r="86.94" gradientUnits="userSpaceOnUse"><stop offset="0" stop-color="#595959"/><stop offset="1"/></radialGradient></defs><g id="Layer_2" data-name="Layer 2"><g id="Layer_1-2" data-name="Layer 1"><rect class="cls-1" x="6.12" y="6.55" width="173.88" height="173.88"/><path class="cls-2" d="M168.91,0H21.08A21.11,21.11,0,0,0,0,21.08V168.91A21.11,21.11,0,0,0,21.08,190H168.91A21.11,21.11,0,0,0,190,168.91V21.08A21.11,21.11,0,0,0,168.91,0ZM180,159.79,159.78,180H30.21L10,159.79V30.21L30.21,10H159.78L180,30.21Z"/><path class="cls-3" d="M150,103c-.08-.66-.14-1.35-.27-2s-.33-1.61-.56-2.41c-.17-.62-.4-1.27-.63-1.88a27.26,27.26,0,0,0-2.95-5.79c-.27-.46-.57-.88-.88-1.31,0,0,0-.07-.08-.07A12.21,12.21,0,0,0,143.46,88a28.38,28.38,0,0,0-3.29-3.49c-.54-.53-1.08-1-1.65-1.49a45.23,45.23,0,0,0-4.26-3.22c-.73-.5-1.53-1-2.34-1.46s-1.61-.92-2.45-1.38l-2.57-1.27-.65-.3c-.27-.16-.65-.35-1.08-.58s-.92-.46-1.52-.8c-.27-.16-.62-.31-.93-.5s-.65-.35-1-.54c-.11,0-.22-.11-.38-.19-.31-.19-.65-.35-1-.54l-1.07-.61c-.62-.35-1.27-.73-2-1.07-2.34-1.35-4.93-2.88-7.62-4.57-1-.61-2-1.3-3.08-1.95a121.72,121.72,0,0,1-12-8.75,11,11,0,0,1-1.34-1.15C92,53,90.78,51.84,89.67,50.69a7.59,7.59,0,0,0-10.32-.53c-2,1.64-4.45,3.68-7.06,6-.87.76-1.76,1.57-2.68,2.41a154.88,154.88,0,0,0-16,16.87c-.46.58-.88,1.12-1.35,1.69l-.69.92c-.81,1-1.54,2.11-2.26,3.15-1.23,1.8-2.41,3.6-3.45,5.48-.35.57-.66,1.15-1,1.72a47.34,47.34,0,0,0-3.71,8.86s0,.12,0,.16a24.65,24.65,0,0,0-1.32,7.86c0,.61,0,1.26.09,1.88,0,.34.07.72.11,1.11v.07a.24.24,0,0,0,0,.16l.12.92c.07.46.19.92.3,1.38a9.92,9.92,0,0,0,.34,1.38c.12.34.23.73.36,1.11a8.87,8.87,0,0,0,.42,1.15,16.74,16.74,0,0,0,.72,1.61,14.51,14.51,0,0,0,.65,1.31,18.75,18.75,0,0,0,1.23,2.07c.34.53.69,1.07,1.07,1.57a35.16,35.16,0,0,0,5.56,6c1,.88,2.08,1.72,3.18,2.57s2.3,1.57,3.53,2.34,2.53,1.45,3.85,2.14c.68.31,1.33.66,2,1s1.42.65,2.11.92,1.42.58,2.14.88,1.65.58,2.5.85c1.11.38,2.19.73,3.33,1s2.26.62,3.42.89a76.29,76.29,0,0,0,12.42,1.8l2.27.11c1.1,0,2.22.08,3.37.08,30.44,0,55.15-16.26,55.15-36.31A22,22,0,0,0,150,103ZM85.15,113.89c-19.8,0-35.82-8.06-35.82-18,0-.3,0-.61,0-.92.7-10.36,19.74-26.3,29.58-34.48,7.29-6.06,5.19-2.5,9.86,1.58a8.36,8.36,0,0,1,2.66,4,19.43,19.43,0,0,0,14.31,13.84c12.17,2.86,15.19,8.8,15.19,16C121,105.83,104.94,113.89,85.15,113.89Z"/></g></g></svg>