<svg xmlns="http://www.w3.org/2000/svg" xmlns:xlink="http://www.w3.org/1999/xlink" viewBox="0 0 190 190"><defs><style>.cls-1{opacity:0.41;fill:url(#radial-gradient);}.cls-2{fill:#5cc5ff;}.cls-3{fill:#ff4573;}</style><radialGradient id="radial-gradient" cx="93.06" cy="93.49" r="86.94" gradientUnits="userSpaceOnUse"><stop offset="0" stop-color="#595959"/><stop offset="1"/></radialGradient></defs><g id="Layer_2" data-name="Layer 2"><g id="Layer_1-2" data-name="Layer 1"><rect class="cls-1" x="6.12" y="6.55" width="173.88" height="173.88"/><path class="cls-2" d="M168.91,0H21.08A21.11,21.11,0,0,0,0,21.08V168.91A21.11,21.11,0,0,0,21.08,190H168.91A21.11,21.11,0,0,0,190,168.91V21.08A21.11,21.11,0,0,0,168.91,0ZM180,159.79,159.78,180H30.21L10,159.79V30.21L30.21,10H159.78L180,30.21Z"/><path class="cls-3" d="M99.74,67.26,85.84,53.35a2.87,2.87,0,0,1,0-4.06l8.65-8.66a2.87,2.87,0,0,1,4.07,0l13.91,13.9a2.87,2.87,0,0,1,0,4.06l-8.66,8.67A2.89,2.89,0,0,1,99.74,67.26ZM117,99.1a2.89,2.89,0,0,0-4.07,0L90.57,121.48l-.09-.09A14.42,14.42,0,0,1,70.08,101L92.46,78.61a2.89,2.89,0,0,0,0-4.07l-13.9-13.9a2.89,2.89,0,0,0-4.07,0L51.15,84A38.81,38.81,0,0,0,106,138.85l23.34-23.33a2.89,2.89,0,0,0,0-4.07Zm15.94-20-8.66,8.66a2.89,2.89,0,0,0,0,4.07l12.35,12.35a2.89,2.89,0,0,0,4.07,0l8.66-8.67a2.87,2.87,0,0,0,0-4.06L137,79.09A2.89,2.89,0,0,0,133,79.09Z"/></g></g></svg>