<svg xmlns="http://www.w3.org/2000/svg" xmlns:xlink="http://www.w3.org/1999/xlink" viewBox="0 0 190 190"><defs><style>.cls-1{opacity:0.41;fill:url(#radial-gradient);}.cls-2{fill:#5cc5ff;}.cls-3{fill:#ef941b;}</style><radialGradient id="radial-gradient" cx="93.06" cy="93.49" r="86.94" gradientUnits="userSpaceOnUse"><stop offset="0" stop-color="#595959"/><stop offset="1"/></radialGradient></defs><g id="Layer_2" data-name="Layer 2"><g id="Layer_1-2" data-name="Layer 1"><rect class="cls-1" x="6.12" y="6.55" width="173.88" height="173.88"/><path class="cls-2" d="M168.91,0H21.08A21.11,21.11,0,0,0,0,21.08V168.91A21.11,21.11,0,0,0,21.08,190H168.91A21.11,21.11,0,0,0,190,168.91V21.08A21.11,21.11,0,0,0,168.91,0ZM180,159.79,159.78,180H30.21L10,159.79V30.21L30.21,10H159.78L180,30.21Z"/><path class="cls-3" d="M80.43,154.76c-3.87,19.47,1.38,12.06-10.73,14-9.28,1.5-14.25-2.74-15.65-6.41-.86-2.28.78-4.63,1.94-6.44,4-6.36,5.88-12.41,8-17.38,3.19-7.59,6.13-13.07,6.72-17.94,1.27-10.52-1-15.11,5.23-17.4,3.28-1.19,6-7.53,9.66-14.84,2.45-4.86,6-10,8.23-15.58,1.8-4.56,4-8.62,5.64-12.54a16.22,16.22,0,0,0,5.76,4,14.66,14.66,0,0,0,6,1.3,4.72,4.72,0,0,1,2.24.46,17.25,17.25,0,0,0,9,1.44c-5.07,9.3-12,13.86-15.55,16.45-2.18,1.6-4,4.15-3.5,6.84,1.13,6.55-.29,7.75-5.3,14.76-2.26,3.16-7,6.65-9.86,13.4-1.78,4.15-1.17,10.18-3.09,16.35A175.17,175.17,0,0,0,80.43,154.76Z"/><path class="cls-3" d="M114.57,63.44c-3.81-1.62-4.45-.12-8.27-1.75-6-2.56-8.06-9.25-6.22-13.55,2.77-6.5,1.49-7,4.26-13.54,1.83-4.31,8.85-5.72,14.86-3.15,3.81,1.62,3.38,2.64,7.19,4.27,6,2.56,11.26,8,9.43,12.3-2.77,6.5-5.77,5.22-8.54,11.72C125.45,64,120.58,66,114.57,63.44Z"/></g></g></svg>