<svg xmlns="http://www.w3.org/2000/svg" xmlns:xlink="http://www.w3.org/1999/xlink" viewBox="0 0 190 190"><defs><style>.cls-1{opacity:0.41;fill:url(#radial-gradient);}.cls-2{fill:#5cc5ff;}.cls-3{fill:#0170e3;}</style><radialGradient id="radial-gradient" cx="93.06" cy="93.49" r="86.94" gradientUnits="userSpaceOnUse"><stop offset="0" stop-color="#595959"/><stop offset="1"/></radialGradient></defs><g id="Layer_2" data-name="Layer 2"><g id="Layer_1-2" data-name="Layer 1"><rect class="cls-1" x="6.12" y="6.55" width="173.88" height="173.88"/><path class="cls-2" d="M168.91,0H21.08A21.11,21.11,0,0,0,0,21.08V168.91A21.11,21.11,0,0,0,21.08,190H168.91A21.11,21.11,0,0,0,190,168.91V21.08A21.11,21.11,0,0,0,168.91,0ZM180,159.79,159.78,180H30.21L10,159.79V30.21L30.21,10H159.78L180,30.21Z"/><path class="cls-3" d="M130.44,137.15a16.52,16.52,0,0,1,0-2.11,34.39,34.39,0,0,0-1.33-13.68c-.7-2.58-2.3-4.23-5.06-4.46-3.4-.29-6.82-.64-10.23-.7a8.68,8.68,0,0,0-3.5,1.24A17.71,17.71,0,0,0,108,119a5.75,5.75,0,0,0-2.61,4.58c-.23,3.89-.36,7.78-.55,11.67-.14,3-.16,3-3.21,3-5.24-.08-10.5,0-15.68-1.11-1.1-.24-1.23-.72-1.06-1.67q.58-3.37,1-6.78a6.1,6.1,0,0,0-1.32-4.76c-2.24-2.81-4.45-5.64-6.9-8.75,1-1,2.23-2.1,3.48-3.17,3.09-2.64,6.17-5.3,9.34-7.84a6.44,6.44,0,0,1,2.74-1.06c1.45-.28,3-.2,4.4-.55,5-1.21,7.76-4.65,9-9.37a54.17,54.17,0,0,0,1.4-17.4c-.17-3.26-.48-6.51-.8-9.75-.08-.88.17-1.29,1-1.34,1.4-.07,2.79-.21,4.19-.18,9.14.22,18.29.51,27.44.72a3.41,3.41,0,0,1,3,1.56c2.1,3,4.27,5.9,6.49,9-1,1.36-2,2.69-2.85,4.13a28.09,28.09,0,0,0-2.39,4.86,3.91,3.91,0,0,0,.33,2.77A35.14,35.14,0,0,0,147.41,92c2.45,3.4,5,6.76,7.43,10.14a6.65,6.65,0,0,1,1,5.79,32.05,32.05,0,0,1-6.14,12.84A13.11,13.11,0,0,0,147,132.23c.28,1.28.38,2.6.59,3.89.11.69-.14,1.08-.84,1.13-5.4.35-10.8,1.11-16.21,0C130.52,137.25,130.49,137.2,130.44,137.15Z"/><path class="cls-3" d="M77.92,54.73c-.46,1.38-.91,2.7-1.34,4a2,2,0,0,1-2.06,1.55,23.73,23.73,0,0,0-10.19,2.81,11.67,11.67,0,0,0-6.79,12.75,19.48,19.48,0,0,0,1.3,4.62A47.88,47.88,0,0,0,65.43,92a52.8,52.8,0,0,1,2.95,4.59,1,1,0,0,1-.53,1.6c-3.19,1.26-6.36,2.56-9.59,3.7-1.68.59-2.72-.06-3.38-1.75-.37-1-.72-1.9-1.11-2.84a4.85,4.85,0,0,0-5.05-3.07c-3.22.06-6.44.14-9.65,0A29.3,29.3,0,0,1,29,92.49a14.24,14.24,0,0,1-1.89-1.09l.08-.5c1.57-.2,3.13-.44,4.7-.59a109.11,109.11,0,0,0,18.53-3.68A1.36,1.36,0,0,0,51.57,85c-.11-.89-.18-1.77-.25-2.66C50.7,74.8,52.79,67.8,55.54,61a81.06,81.06,0,0,1,4.54-8.78,1.71,1.71,0,0,1,1.38-.78c5.41,1,10.8,2,16.2,3.11C77.73,54.54,77.79,54.63,77.92,54.73Z"/><path class="cls-3" d="M84.75,46.53c.93,1,1.67,2,2.5,2.8A45.29,45.29,0,0,1,98.41,67.87a30.28,30.28,0,0,1-.52,19.47,16.48,16.48,0,0,1-7.69,9.2c-2-2.74-4.06-5.49-6.28-8.48l1.11-.8c6.5-4.65,6.7-14,3.07-19.51a23.83,23.83,0,0,0-6.59-7.11,1.48,1.48,0,0,1-.69-1.93C82,55,83.14,51.37,84.3,47.7,84.39,47.42,84.51,47.16,84.75,46.53Z"/><path class="cls-3" d="M65.32,75.29c0-5,2.78-8.17,7.93-8.6,4.45-.38,9.37,4,9.69,8.35.29,4.11-3.48,8.52-7.64,8.63C68.16,83.86,65.51,81.28,65.32,75.29Z"/><path class="cls-3" d="M69,130.9c.72,0,.94.33.89,1-.15,2.23-.25,4.46-.4,6.69a2.72,2.72,0,0,1-3.67,2.53c-1.37-.41-2.7-1-4-1.52a4.25,4.25,0,0,0-3.89.31c-1.28.73-2.68,1.4-4,.25s-1.43-2.81-1-4.46a3.19,3.19,0,0,1,2.52-2.43,19.66,19.66,0,0,1,3.75-.41,1.79,1.79,0,0,0,1.82-1.1,1.53,1.53,0,0,1,1.7-1C63.61,130.82,67.85,130.91,69,130.9Z"/><path class="cls-3" d="M94.05,47.22c2,.23,3.72.39,5.41.63,3.31.47,6.61,1,9.92,1.48a1.35,1.35,0,0,1,1.29,1.54q.08,3.87.29,7.74c.07,1.17-.42,1.47-1.51,1.35-1.39-.16-2.79-.13-4.18-.27a1.64,1.64,0,0,1-1.14-.62A37.75,37.75,0,0,0,94.72,48,9.56,9.56,0,0,1,94.05,47.22Z"/><path class="cls-3" d="M103.49,140.21c2.21,0,2.33.07,2.2,2.24-.19,3,0,2.37-2.54,2.54-3.46.24-6.92.59-10.38.65-2.78.05-5.57-.26-8.35-.43-.2,0-.55-.12-.56-.19a16.63,16.63,0,0,1,.06-3.46c.08-.39,1-.85,1.56-.87C88.57,140.61,100.57,140.23,103.49,140.21Z"/><path class="cls-3" d="M144.77,145c-4.74,0-9.48,0-14.22,0-1.62,0-1.71-.13-1.72-1.75,0-2.81,0-2.83,2.75-2.91,5-.13,10-.23,15-.38,1.13,0,1.57.37,1.6,1.54C148.25,144.91,148.29,144.9,144.77,145Z"/><path class="cls-3" d="M120.42,61c-1.15.06-2.29.08-3.43.19-.94.09-1.33-.22-1.23-1.2.22-2.28.43-4.55.56-6.84.05-.79.4-1,1.1-1l7.23.36c.74,0,1,.46.95,1.19-.19,2.06-.33,4.13-.61,6.19a1.44,1.44,0,0,1-1,.89,34.89,34.89,0,0,1-3.54.25Z"/><path class="cls-3" d="M69.52,101.7l1.41,5c-3.05,1.12-6,2.2-8.9,3.26-1.61.59-1.71.54-2.57-1-.35-.63-.67-1.27-1.05-1.88s-.33-1.18.46-1.49l10.06-3.84A3.36,3.36,0,0,1,69.52,101.7Z"/><path class="cls-3" d="M157.43,93.28l-6.2-8.15h11.66Z"/><path class="cls-3" d="M70.24,112.22c1.16-.2,1.47.46,1.57,1.38a5.21,5.21,0,0,1,.06.88c0,2.08-.37,2.4-2.42,2.48s-4.13.24-6.19.3a1.45,1.45,0,0,1-.92-.52,3.67,3.67,0,0,1-.41-.92c-.6-1.41-.51-1.64,1-2C65.37,113.27,67.81,112.76,70.24,112.22Z"/><path class="cls-3" d="M63.33,126v-3c2.6-.11,5.15-.25,7.71-.31a1,1,0,0,1,.63.71,29.86,29.86,0,0,1-.37,3.78,1.11,1.11,0,0,1-.94.53C68.07,127.27,65.81,126.66,63.33,126Z"/><path class="cls-3" d="M130.56,54.88c2.14.51,4.17,1,6.18,1.5.22,0,.35.48.49.76a.7.7,0,0,1,0,.37c-.65,2.48.24,2.38-2.8,2.35-3.93,0-3.93,0-3.9-4C130.49,55.67,130.52,55.43,130.56,54.88Z"/></g></g></svg>