<svg xmlns="http://www.w3.org/2000/svg" xmlns:xlink="http://www.w3.org/1999/xlink" viewBox="0 0 190 190"><defs><style>.cls-1{opacity:0.41;fill:url(#radial-gradient);}.cls-2{fill:#5cc5ff;}.cls-3{fill:#00e2ff;}</style><radialGradient id="radial-gradient" cx="93.06" cy="93.49" r="86.94" gradientUnits="userSpaceOnUse"><stop offset="0" stop-color="#595959"/><stop offset="1"/></radialGradient></defs><g id="Layer_2" data-name="Layer 2"><g id="Layer_1-2" data-name="Layer 1"><rect class="cls-1" x="6.12" y="6.55" width="173.88" height="173.88"/><path class="cls-2" d="M168.91,0H21.08A21.11,21.11,0,0,0,0,21.08V168.91A21.11,21.11,0,0,0,21.08,190H168.91A21.11,21.11,0,0,0,190,168.91V21.08A21.11,21.11,0,0,0,168.91,0ZM180,159.79,159.78,180H30.21L10,159.79V30.21L30.21,10H159.78L180,30.21Z"/><path class="cls-3" d="M141.21,73.31V140.5a5.73,5.73,0,0,1-5.72,5.73h-81a5.73,5.73,0,0,1-5.72-5.73V73.31a5.73,5.73,0,0,1,5.72-5.73H65.4a9.27,9.27,0,0,0,9.09,10.69h2.17a7.69,7.69,0,0,1,6.1,3.25c1.62,2.17,4.78,4.75,10.53,4.75s8.95-2.81,10.47-5.16a6.9,6.9,0,0,1,5.73-3.34h5A8.82,8.82,0,0,0,123.29,69a8.19,8.19,0,0,0-.13-1.4h12.33A5.73,5.73,0,0,1,141.21,73.31Z"/><path class="cls-3" d="M119.08,67.6H107.36a15.49,15.49,0,1,0-26.16,0H69.47A5.22,5.22,0,0,0,69.29,69v.09a5.2,5.2,0,0,0,5.2,5.2h2.17A11.7,11.7,0,0,1,86,79.13c1.26,1.69,3.46,3.14,7.33,3.14s6-1.56,7.12-3.33a10.89,10.89,0,0,1,9.09-5.17h5A4.8,4.8,0,0,0,119.29,69,4.85,4.85,0,0,0,119.08,67.6ZM94.29,52.77a6.5,6.5,0,1,1-6.5,6.5A6.51,6.51,0,0,1,94.29,52.77Z"/></g></g></svg>