<svg xmlns="http://www.w3.org/2000/svg" xmlns:xlink="http://www.w3.org/1999/xlink" viewBox="0 0 190 190"><defs><style>.cls-1{opacity:0.41;fill:url(#radial-gradient);}.cls-2{fill:#5cc5ff;}.cls-3{fill:#00e2ff;}</style><radialGradient id="radial-gradient" cx="93.06" cy="93.49" r="86.94" gradientUnits="userSpaceOnUse"><stop offset="0" stop-color="#595959"/><stop offset="1"/></radialGradient></defs><g id="Layer_2" data-name="Layer 2"><g id="Layer_1-2" data-name="Layer 1"><rect class="cls-1" x="6.12" y="6.55" width="173.88" height="173.88"/><path class="cls-2" d="M168.91,0H21.08A21.11,21.11,0,0,0,0,21.08V168.91A21.11,21.11,0,0,0,21.08,190H168.91A21.11,21.11,0,0,0,190,168.91V21.08A21.11,21.11,0,0,0,168.91,0ZM180,159.79,159.78,180H30.21L10,159.79V30.21L30.21,10H159.78L180,30.21Z"/><path class="cls-3" d="M135.66,99.62v0c0,.54,0,1.08,0,1.62a3,3,0,0,1,0,.42c0,.49-.05,1-.09,1.48s-.09,1-.15,1.53c0,.34-.08.68-.13,1s-.09.67-.15,1c0,.1,0,.2-.05.3a45,45,0,0,1-34.2,36.39h0c-.83.19-1.66.36-2.5.5-.42.08-.84.14-1.27.2l-1,.13-.77.09-.25,0c-.32,0-.64.06-1,.09H94l-1.07.07-1,0-1.27,0a44.78,44.78,0,0,1-30.46-11.9l-.9-.84a45.54,45.54,0,0,1-7.93-10.33c-.37-.68-.73-1.37-1.08-2.06a45.49,45.49,0,0,1-2.2-5.32c-.37-1.08-.7-2.18-1-3.29a45.25,45.25,0,0,1-.69-19.41c.19-1,.41-2,.66-3s.54-2,.87-3q.33-1,.69-2c.25-.65.52-1.29.79-1.93.14-.31.29-.63.43-1,.3-.63.61-1.26.93-1.88l.5-.93a45.41,45.41,0,0,1,6.29-8.7l.84-.89c.28-.29.57-.58.86-.86.57-.56,1.16-1.11,1.76-1.64.9-.79,1.84-1.54,2.79-2.25.5-.37,1-.74,1.53-1.09l.78-.52c.85-.56,1.72-1.08,2.61-1.58s1.58-.85,2.39-1.24c.58-.28,1.17-.55,1.76-.8,1.18-.51,2.37-1,3.58-1.36.5-.17,1-.32,1.5-.46a45,45,0,0,1,12.71-1.83q.76,0,1.53,0l1.53.07c.51,0,1,.08,1.53.14s1,.11,1.53.18a9.25,9.25,0,0,0,2.3,10.24l1.6,1.47A7.69,7.69,0,0,1,103,73.26c-.27,2.7.29,6.73,4.52,10.62a12.39,12.39,0,0,0,8.5,3.65,11.08,11.08,0,0,0,2.72-.34,7.92,7.92,0,0,1,2-.26,6.51,6.51,0,0,1,4.49,1.69L128.86,92a8.71,8.71,0,0,0,5.93,2.32h.55c0,.42.09.83.13,1.25,0,.06,0,.12,0,.18,0,.34,0,.67.07,1,0,.52.06,1.05.08,1.57S135.66,99.18,135.66,99.62ZM68.74,60.3c-.88.49-1.76,1-2.61,1.58C67,61.32,67.85,60.8,68.74,60.3Zm66.31,46.75c0-.1,0-.2,0-.3,0,.1,0,.2-.05.3Zm4.82-35.29a15.4,15.4,0,0,1-10.65,4.63,44.54,44.54,0,0,1,5.59,14.5,4.88,4.88,0,0,1-1.14.15,4.83,4.83,0,0,1-3.41-1.37l-3.55-3.5a10.86,10.86,0,0,0-10.09-2.69c-2.08.46-4.68.09-7.43-2.61s-3.29-5.3-3-7.38a11.65,11.65,0,0,0-3.24-10L101.4,62a5.19,5.19,0,0,1-.87-6.29,44.08,44.08,0,0,1,12.79,5,15.5,15.5,0,1,1,26.55,11Zm-6.49-15.5a6.5,6.5,0,1,0,.08,9.2A6.51,6.51,0,0,0,133.38,56.26Z"/></g></g></svg>