<svg xmlns="http://www.w3.org/2000/svg" xmlns:xlink="http://www.w3.org/1999/xlink" viewBox="0 0 190 190"><defs><style>.cls-1{opacity:0.41;fill:url(#radial-gradient);}.cls-2{fill:#5cc5ff;}.cls-3{fill:#50ba11;}</style><radialGradient id="radial-gradient" cx="93.06" cy="93.49" r="86.94" gradientUnits="userSpaceOnUse"><stop offset="0" stop-color="#595959"/><stop offset="1"/></radialGradient></defs><g id="Layer_2" data-name="Layer 2"><g id="Layer_1-2" data-name="Layer 1"><rect class="cls-1" x="6.12" y="6.55" width="173.88" height="173.88"/><path class="cls-2" d="M168.91,0H21.08A21.11,21.11,0,0,0,0,21.08V168.91A21.11,21.11,0,0,0,21.08,190H168.91A21.11,21.11,0,0,0,190,168.91V21.08A21.11,21.11,0,0,0,168.91,0ZM180,159.79,159.78,180H30.21L10,159.79V30.21L30.21,10H159.78L180,30.21Z"/><path class="cls-3" d="M74.44,103.06c-.23-.29-.45-.58-.69-.86-2-2.23-3.12-4.69-2.65-7.77a3.06,3.06,0,0,0-1.62-3.2,42.54,42.54,0,0,0-4.3-1.91c-3.83-1.61-7.75-3-11.48-4.85C48.67,82,46,78,46.22,72.19a23.6,23.6,0,0,0-.16-3,11.61,11.61,0,0,0-3.43-7.39,31.41,31.41,0,0,0-8-5.88,17.42,17.42,0,0,1-5.83-4.74,9.54,9.54,0,0,1-1.58-2.86A3.78,3.78,0,0,1,29,44.05c1.14-.75,2.07-.72,3.56.66C35,47,37.32,49.56,39.78,51.9c1.62,1.53,3.39,2.91,5.13,4.31.25.21.7.18,1.05.25a4.3,4.3,0,0,0,.09-1.07A7.17,7.17,0,0,0,45.66,54c-.81-2.34-2.37-4.21-3.81-6.17-2.52-3.43-4.94-6.93-7.41-10.39a4.84,4.84,0,0,1,0-6.14,14.59,14.59,0,0,1,3.36-3.25c2.39-1.62,4.12-1.3,5.74,1.09a62.42,62.42,0,0,1,4,6.87A67.49,67.49,0,0,0,62.58,56.48c4.38,3.94,8.89,7.76,13.51,11.4a150,150,0,0,0,18.2,12.39,5.13,5.13,0,0,1,2.89,5C97,89.11,101,93,104.78,92.82a5,5,0,0,1,4.77,2.63c.6.92,1.1,1.91,1.69,2.84a194.25,194.25,0,0,0,21.26,28.09,62.57,62.57,0,0,0,13.15,11.32c3.82,2.33,7.81,4.36,11.7,6.56a33.93,33.93,0,0,1,3.75,2.38c2,1.49,2.31,3,1.07,5.11a13.51,13.51,0,0,1-2.68,3.25c-2.45,2.17-5.31,2.16-7.94.19-3.88-2.91-7.7-5.91-11.67-8.69a31.71,31.71,0,0,0-5.24-2.54c-.29-.13-.72,0-1.08,0a6.1,6.1,0,0,0,.26,1.14,4.84,4.84,0,0,0,.68,1,60.18,60.18,0,0,0,8.13,8.3,21.73,21.73,0,0,1,3.36,3.8,2.32,2.32,0,0,1-.47,3.24,4,4,0,0,1-5.48.57,15.71,15.71,0,0,1-4.67-4.76c-1.45-2.21-2.83-4.47-4.29-6.68a11,11,0,0,0-8.74-5.34,50.84,50.84,0,0,1-8.24-1.61,12.74,12.74,0,0,1-7.52-5.55A51.54,51.54,0,0,1,101,125.78a44.06,44.06,0,0,0-1.65-4.42A3.83,3.83,0,0,0,94.88,119a7.14,7.14,0,0,1-4.47-.9,33.06,33.06,0,0,1-2.78-2c-.25-.17-.5-.36-.75-.54a6.88,6.88,0,0,0,2.41,3.82c1,.87,1,1.41,0,2.3a4.58,4.58,0,0,1-.84.6,11.24,11.24,0,0,1-6.48,1.32,6.45,6.45,0,0,1-4.46-2c-2.83-2.88-5.64-5.78-8.57-8.55-2.61-2.46-3.65-7.91-.84-12,1.19-1.72,1.82-1.32,2.78-.16a7.7,7.7,0,0,0,3.42,2.34ZM64.38,63a15.42,15.42,0,0,0-7.63-2.22,6.92,6.92,0,0,0-7,5.59A13.19,13.19,0,0,0,59,81.65c1.81.46,3.56.44,4.8-1.22A4.63,4.63,0,0,0,62.59,73a11.78,11.78,0,0,0-2.11-.79,5.54,5.54,0,0,1-3.71-4.72c-.27-1.73.53-3,2.27-3.18a35.58,35.58,0,0,1,5.35.18,19.69,19.69,0,0,1,2.11.34l.15-.3C65.89,64,65.17,63.44,64.38,63Zm61.14,62.31a37.06,37.06,0,0,1,.38,4.69c-.1,2.84-1.81,3.9-4.51,3a5.44,5.44,0,0,1-3.54-3.42c-.27-.74-.52-1.48-.8-2.22a3.46,3.46,0,0,0-2.72-2.23,5.9,5.9,0,0,0-4.36.78,3.86,3.86,0,0,0-1.75,4.43,12.24,12.24,0,0,0,5.77,8.18,12.62,12.62,0,0,0,9.52,1.77,6.81,6.81,0,0,0,5.71-7.17,16.59,16.59,0,0,0-3.69-9.69l-.29.08C125.33,124.09,125.46,124.7,125.52,125.31Z"/><path class="cls-3" d="M72,117.65c-1.45-1.19-2.89-2.48-4.43-3.61-1.33-1-2.23-.71-2.59.88a37.38,37.38,0,0,0-.78,6c-.29,4.69.38,3.47-3.28,6.52-5,4.17-10.16,8.17-15.23,12.28-1.52,1.22-3,2.5-4.41,3.85a3.71,3.71,0,0,0-1.05,1.94,26.14,26.14,0,0,0-.4,4.67c0,1.2.43,1.52,1.65,1.41a23.19,23.19,0,0,0,4.06-.73,3.44,3.44,0,0,0,1.58-1.13q8.18-9.85,16.29-19.77l.06-.07a7.54,7.54,0,0,1,6.23-3.49,27.77,27.77,0,0,0,4.63-.88,3.74,3.74,0,0,0,.7-.27c1.71-.77,1.93-1.46.8-2.94S73.31,119.22,72,117.65Z"/><path class="cls-3" d="M105.23,69.2a8.69,8.69,0,0,0-1.14,1,31.2,31.2,0,0,0-4.71,8A8,8,0,0,0,100.72,87a19.94,19.94,0,0,0,3.83,3.45,5.61,5.61,0,0,0,2.85.66,5,5,0,0,1,3,1,2.43,2.43,0,0,0,3.42-.07,1.9,1.9,0,0,0,.54-2.6,1.84,1.84,0,0,1,.31-2.41,2.17,2.17,0,0,1,2.69-.75,2,2,0,0,0,2.52-.32,2.17,2.17,0,0,0,.65-2.66,19.08,19.08,0,0,0-1.92-2.89,7.31,7.31,0,0,0-1.47-1.47,2.62,2.62,0,0,1-1-3.28,34.26,34.26,0,0,1,2.66-5.4c1.74-2.73,3.72-5.31,5.55-8a7.67,7.67,0,0,0,.64-1.76,5.71,5.71,0,0,0-1.9.49c-5.38,3.62-9.58,8.24-11.85,14.43a9.11,9.11,0,0,0-.26,6c.06.21.1.42.15.64a3.42,3.42,0,0,1-3.59,4.33,5.11,5.11,0,0,1-4.38-7.2,16.54,16.54,0,0,1,1.17-2,1,1,0,0,0-.19-1.51,1.48,1.48,0,0,1-.37-2c.45-1,1-1.91,1.41-2.88a8,8,0,0,0,.39-1.26Z"/><path class="cls-3" d="M65.42,129.11c-5.25,6.36-10.4,12.8-15,19.64a15,15,0,0,0-.93,1.54c-.45.86-.29,1.25.67,1.52a5.62,5.62,0,0,0,1.76.27c2.07-.13,4.14-.32,6.2-.54A3.37,3.37,0,0,0,61,149.29c1.51-3.7,3.12-7.36,4.53-11.1,1.19-3.12,2.17-6.31,3.21-9.48.32-1,0-1.25-1-1.12A3.14,3.14,0,0,0,65.42,129.11Z"/><path class="cls-3" d="M62.12,125.25a11.25,11.25,0,0,0,1.06-2.11c.3-1-.09-1.38-1.12-1-3.67,1.22-7.36,2.41-11,3.77-3.18,1.19-6.28,2.61-9.42,3.89a3.61,3.61,0,0,0-2.44,3.18q-.28,3-.48,6a5.4,5.4,0,0,0,.23,1.58c.28,1.12.71,1.36,1.67.73,2.24-1.46,4.49-2.92,6.62-4.53C52.2,133,57.07,129.16,62.12,125.25Z"/><path class="cls-3" d="M41.39,69.65c1.42-1.43,1.07-5-.59-6a10.38,10.38,0,0,0-6.16-1.45A2.79,2.79,0,0,0,32,64.37a6.62,6.62,0,0,0,.36,5.06A3.24,3.24,0,0,0,34.07,71a9.48,9.48,0,0,0,7-1.09A1.52,1.52,0,0,0,41.39,69.65Z"/><path class="cls-3" d="M126.49,156.47a11,11,0,0,0,.57-2.15,10.77,10.77,0,0,0-1.22-5.48c-.81-1.62-2.35-1.86-3.94-1.85a3,3,0,0,0-3,2.11,11.87,11.87,0,0,0-.81,5.27,3,3,0,0,0,2.19,2.78,7.23,7.23,0,0,0,4.55.14A12.12,12.12,0,0,0,126.49,156.47Z"/><path class="cls-3" d="M109.19,153.53a17,17,0,0,0,1.68,1c1.85.84,3,.56,3.94-1.22a31,31,0,0,0,1.82-4.82,2,2,0,0,0-1.07-2.38c-.24-.14-.48-.3-.73-.43-2.28-1.12-3-.94-4.24,1.25a36.68,36.68,0,0,0-1.9,4.3A2,2,0,0,0,109.19,153.53Z"/><path class="cls-3" d="M35.65,80.07a2.22,2.22,0,0,0,2.08.57,16.94,16.94,0,0,0,5.93-2.84,1.39,1.39,0,0,0,.49-.77c.26-1.15-.77-3.62-1.81-4.15a2.45,2.45,0,0,0-1.71-.22,33.81,33.81,0,0,0-5,2c-1.42.73-1.67,1.67-1.14,3.19A19.71,19.71,0,0,0,35.65,80.07Z"/><path class="cls-3" d="M41.35,82a2.28,2.28,0,0,0,.73,4,1.69,1.69,0,0,0,1.34,0,26.77,26.77,0,0,0,3.42-2.13c.92-.7,1-1.38.44-2.41a2,2,0,0,0-2.43-1.31,38.41,38.41,0,0,0-3.61,1.72Z"/><path class="cls-3" d="M107.44,148c.56-1.07,1.23-2.1,1.68-3.22A2.06,2.06,0,0,0,108,142a1.77,1.77,0,0,0-2.69.59,18.89,18.89,0,0,0-1.72,2.69c-.72,1.39-.47,2.2.79,3.06C105.39,149.08,106.25,148.94,107.44,148Z"/></g></g></svg>