<svg xmlns="http://www.w3.org/2000/svg" xmlns:xlink="http://www.w3.org/1999/xlink" viewBox="0 0 190 190"><defs><style>.cls-1{opacity:0.41;fill:url(#radial-gradient);}.cls-2{fill:#5cc5ff;}.cls-3{fill:#194b7c;}.cls-4{fill:#fff;}.cls-5{fill:#ced3cc;}</style><radialGradient id="radial-gradient" cx="93.06" cy="93.49" r="86.94" gradientUnits="userSpaceOnUse"><stop offset="0" stop-color="#595959"/><stop offset="1"/></radialGradient></defs><g id="Layer_2" data-name="Layer 2"><g id="Layer_1-2" data-name="Layer 1"><rect class="cls-1" x="6.12" y="6.55" width="173.88" height="173.88"/><path class="cls-2" d="M168.91,0H21.08A21.11,21.11,0,0,0,0,21.08V168.91A21.11,21.11,0,0,0,21.08,190H168.91A21.11,21.11,0,0,0,190,168.91V21.08A21.11,21.11,0,0,0,168.91,0ZM180,159.79,159.78,180H30.21L10,159.79V30.21L30.21,10H159.78L180,30.21Z"/><path class="cls-3" d="M136.27,68.33s-.27,13.37-4.55,33.1c0,0-4.94,24.46-36.59,44.17l-.13.08-.13-.08c-31.65-19.71-36.59-44.17-36.59-44.17C54,81.7,53.73,68.33,53.73,68.33L94.87,44.4l.13-.08.13.08Z"/><path class="cls-4" d="M98.74,98.72s-1-1.09-1-.1c.23.23,0,1.12-1,.46a.16.16,0,0,0-.25.13c0,.77-.71,1-1.15.22-.3-.14.54,1.67-.25,2a.3.3,0,0,1-.26,0c-.79-.3,0-2.11-.25-2-.44.77-1.16.55-1.15-.22a.16.16,0,0,0-.25-.13c-1,.66-1.2-.23-1-.46,0-1-1,.1-1,.1s-.55.56-.4-.34c.41-2.45,3.15-3.53,3.71-3.72a.18.18,0,0,0,.11-.15.81.81,0,0,1,.19-.56.15.15,0,0,1,.26,0,.81.81,0,0,1,.19.56.18.18,0,0,0,.11.15c.56.19,3.3,1.27,3.71,3.72C99.29,99.28,98.74,98.72,98.74,98.72Z"/><path class="cls-4" d="M98.7,109.71a1.23,1.23,0,0,0-.61.23c-1.19.94-2.09.47-2.34,2.18s.46.71.64,2.31a2,2,0,0,1-.26,1.55,1,1,0,0,0-.28.71v2.37a1.08,1.08,0,0,0,.39.84,1.55,1.55,0,0,1,.33.37,1.05,1.05,0,0,1-.07,1.22,5.31,5.31,0,0,1-.94.86,1.06,1.06,0,0,0-.42.8c0,.1,0,.2,0,.29A14.52,14.52,0,0,1,95,125a14.52,14.52,0,0,1-.13-1.58c0-.09,0-.19,0-.29a1.06,1.06,0,0,0-.42-.8,5.31,5.31,0,0,1-.94-.86,1.05,1.05,0,0,1-.07-1.22,1.8,1.8,0,0,1,.33-.37,1.08,1.08,0,0,0,.39-.84v-2.37a1,1,0,0,0-.28-.71,2,2,0,0,1-.26-1.55c.19-1.6.91-.47.64-2.31s-1.14-1.24-2.34-2.18a1.23,1.23,0,0,0-.61-.23c-.35,0-.69-.11-.64-.34s.22-.19.43-.21a1,1,0,0,0,.67-.33l0,0a1.15,1.15,0,0,0,.36-.65l.17-1.21a1,1,0,0,1,.18-.46,11.55,11.55,0,0,1,1.81-2.1,1.07,1.07,0,0,0,.4-.88,1.12,1.12,0,0,1,.15-.73.14.14,0,0,1,.26,0,1.12,1.12,0,0,1,.15.73,1.07,1.07,0,0,0,.4.88,12.45,12.45,0,0,1,1.82,2.1,1.07,1.07,0,0,1,.17.46l.17,1.21a1.15,1.15,0,0,0,.36.65l0,0a1,1,0,0,0,.67.33c.21,0,.4.08.43.21S99.05,109.7,98.7,109.71Z"/><path class="cls-4" d="M122,97.92,107.4,98a.16.16,0,0,0-.16.18l.13,1.54a.18.18,0,0,0,.16.15L121.29,101a.16.16,0,0,1,.12.27,44.29,44.29,0,0,0-3,3.74.17.17,0,0,1-.19.06l-10.45-3a.17.17,0,0,0-.21.19,2.24,2.24,0,0,1-.3,1.35.16.16,0,0,0,.07.23l8.58,4.33a.17.17,0,0,1,0,.31,23.25,23.25,0,0,1-5.26,1.25.2.2,0,0,1-.14-.06l-4.24-4.52a.16.16,0,0,0-.26,0,2.59,2.59,0,0,1-1.56.9.17.17,0,0,0-.13.24l3.48,6.46a.17.17,0,0,1-.16.24c-.87,0-3.41-.27-4.21-1a.17.17,0,0,1-.06-.1l-.86-5.2a.17.17,0,0,0-.22-.13c-.5.18-1.86.59-2.64-.06a.16.16,0,0,1,0-.11l-.4-3.25a.16.16,0,0,1,.13-.18c1.17-.18,8.24-1.6,4.73-8.94a.19.19,0,0,1,0-.07c0-1.07.86-.83,2.48,2a.18.18,0,0,0,.2.08c1.45-.51,14.7-5.13,18.25-5.53a.16.16,0,0,1,.16.23l-3,7A.18.18,0,0,1,122,97.92Z"/><path class="cls-4" d="M102.43,120.35l1.42-2.52a0,0,0,0,0,0,0l-4.43.2s0,0,0,0l.43,1.45a0,0,0,0,1-.06,0l-2-2a0,0,0,0,1,0,0l.5-.77s0,0,0,0l1.06.23s0,0,0,0L97,113.08v0a1.71,1.71,0,0,1,1.37-1.5s0,0,0,0l2.45,4.87,0,0,5,.55a0,0,0,0,1,0,.06l-3.42,3.32S102.41,120.38,102.43,120.35Z"/><path class="cls-4" d="M90.81,103.21l-.4,3.25a.16.16,0,0,1,0,.11c-.78.65-2.14.24-2.64.06a.17.17,0,0,0-.22.13l-.86,5.2a.23.23,0,0,1,0,.1c-.81.72-3.35.94-4.22,1a.17.17,0,0,1-.16-.24l3.48-6.46a.17.17,0,0,0-.13-.24,2.59,2.59,0,0,1-1.56-.9.16.16,0,0,0-.26,0L79.5,109.7a.2.2,0,0,1-.14.06,23.38,23.38,0,0,1-5.26-1.25.17.17,0,0,1,0-.31l8.58-4.33a.16.16,0,0,0,.07-.23,2.24,2.24,0,0,1-.3-1.35.17.17,0,0,0-.21-.19l-10.45,3a.17.17,0,0,1-.19-.06,44.29,44.29,0,0,0-3-3.74.16.16,0,0,1,.12-.27l13.76-1.11a.18.18,0,0,0,.16-.15l.13-1.54A.16.16,0,0,0,82.6,98l-14.55-.1a.18.18,0,0,1-.16-.1l-3-7a.16.16,0,0,1,.16-.23c3.55.4,16.8,5,18.25,5.53a.18.18,0,0,0,.2-.08C85.11,93.19,86,93,86,94a.19.19,0,0,1,0,.07c-3.51,7.34,3.56,8.76,4.73,8.94A.16.16,0,0,1,90.81,103.21Z"/><path class="cls-4" d="M91.83,116.73l.5.77a0,0,0,0,1,0,0l-2,2a0,0,0,0,1-.06,0l.43-1.45s0,0,0,0l-4.43-.2a0,0,0,0,0,0,0l1.42,2.52s0,.07,0,0l-3.42-3.32a0,0,0,0,1,0-.06l5-.55,0,0,2.45-4.87s0,0,0,0a1.71,1.71,0,0,1,1.37,1.5v0L90.7,116.9s0,0,0,0l1.06-.23S91.82,116.72,91.83,116.73Z"/><polygon class="cls-4" points="95 72.45 99.81 80.78 90.19 80.78 95 72.45"/><polygon class="cls-4" points="99.81 80.78 104.61 89.11 95 89.11 99.81 80.78"/><polygon class="cls-4" points="90.19 80.78 95 89.11 85.39 89.11 90.19 80.78"/><path class="cls-5" d="M95.13,44.4,95,44.32l-.13.08L53.73,68.33s.27,13.37,4.55,33.1c0,0,4.94,24.46,36.59,44.17l.13.08.13-.08c31.65-19.71,36.59-44.17,36.59-44.17,4.28-19.73,4.55-33.1,4.55-33.1Zm28.62,64.42-3.61-2-6.75,8,2.84,5.1c-1,2.76-14.65,12.89-14.65,12.89l-3-5h-7.1l-3,5s-13.7-10.13-14.65-12.89l2.84-5.1-6.75-8-3.61,2S59.54,79.33,59.5,78.15l5.3.74S66.49,73,68.44,71.4L67,68.2,84.8,58.48,88.69,65l6.18.39h.26l6.18-.39,3.89-6.51L123,68.2l-1.45,3.2c2,1.62,3.64,7.49,3.64,7.49l5.3-.74C130.46,79.33,123.75,108.82,123.75,108.82Z"/></g></g></svg>