<svg xmlns="http://www.w3.org/2000/svg" xmlns:xlink="http://www.w3.org/1999/xlink" viewBox="0 0 190 190"><defs><style>.cls-1{opacity:0.41;fill:url(#radial-gradient);}.cls-2{fill:#5cc5ff;}.cls-3{fill:#383838;}</style><radialGradient id="radial-gradient" cx="93.06" cy="93.49" r="86.94" gradientUnits="userSpaceOnUse"><stop offset="0" stop-color="#595959"/><stop offset="1"/></radialGradient></defs><g id="Layer_2" data-name="Layer 2"><g id="Layer_1-2" data-name="Layer 1"><rect class="cls-1" x="6.12" y="6.55" width="173.88" height="173.88"/><path class="cls-2" d="M168.91,0H21.08A21.11,21.11,0,0,0,0,21.08V168.91A21.11,21.11,0,0,0,21.08,190H168.91A21.11,21.11,0,0,0,190,168.91V21.08A21.11,21.11,0,0,0,168.91,0ZM180,159.79,159.78,180H30.21L10,159.79V30.21L30.21,10H159.78L180,30.21Z"/><path class="cls-3" d="M95,42.85A52.15,52.15,0,1,0,147.15,95,52.15,52.15,0,0,0,95,42.85Zm19.38,51.88a7.87,7.87,0,0,1-1.12,3.44l22.08,11.17a.53.53,0,0,1,.32.48.81.81,0,0,1-.37.63c-2.4,1.79-9.75,3.73-12.89,3.9l-12.16-13c0,1.65-4.44,3.7-5.21,2.93l10.24,19s-9.87-.36-12.34-2.83l-2.47-14.81a15.21,15.21,0,0,1-4.75,1.78,2.84,2.84,0,0,0-.6,1.73v6.43a2.88,2.88,0,0,0,1.06,2.28,4.19,4.19,0,0,1,.88,1,2.83,2.83,0,0,1-.17,3.3,15.13,15.13,0,0,1-2.54,2.33,2.84,2.84,0,0,0-1.15,2.19c0,.26,0,.52,0,.76a39.11,39.11,0,0,1-.35,4.27,34.31,34.31,0,0,1-.35-4.27c0-.25,0-.5,0-.77a2.86,2.86,0,0,0-1.14-2.18,14.72,14.72,0,0,1-2.54-2.33,2.83,2.83,0,0,1-.18-3.3,4.2,4.2,0,0,1,.89-1,2.88,2.88,0,0,0,1-2.28v-6.43a2.84,2.84,0,0,0-.6-1.73,15.25,15.25,0,0,1-4.74-1.78L82.7,120.48c-2.47,2.47-12.34,2.83-12.34,2.83l10.23-19a.78.78,0,0,1-.57.17c-1.43,0-4.64-1.7-4.64-3.1l-12.16,13a29.81,29.81,0,0,1-3.61-.44,6.94,6.94,0,0,1-5.49-5l-.37-1.35,18.61-9.41s-1.91-3.11-.73-4.84l-18.8,5.35A39.65,39.65,0,0,1,53.51,93a38.77,38.77,0,0,1,1-4l17.34-1.39.45-5L57,82.44a41.78,41.78,0,0,1,3.45-5.85c.73-1,1.51-2.06,2.33-3h0C69.34,75.77,74,77.42,74,77.42c4.57-8,6.9-8.69,6.9-5.62h0a23.33,23.33,0,0,0-2.66,10,12.22,12.22,0,0,0,4.82,9.92,15.7,15.7,0,0,0,19.15.25c4.51-3.41,7.65-9.48,2.49-20.18h0c0-1.08.29-1.7.86-1.7,1.06,0,3.08,2.11,6,7.32,0,0,6.46-2.27,14.82-5.07.93,1,1.8,2.07,2.63,3.17a42,42,0,0,1,4.2,6.89l-19.91.13.46,5,22.1,1.78c.37,1.3.68,2.62.93,4,.11.64.21,1.27.3,1.91s0,1.17,0,1.77c0,1,0,1.94-.1,2.9l-22.68-6.46a0,0,0,0,0,0,0Z"/></g></g></svg>