<svg xmlns="http://www.w3.org/2000/svg" xmlns:xlink="http://www.w3.org/1999/xlink" viewBox="0 0 190 190"><defs><style>.cls-1{opacity:0.41;fill:url(#radial-gradient);}.cls-2{fill:#5cc5ff;}.cls-3{fill:#feff04;}.cls-4{fill:#a12f17;}.cls-5{fill:none;}</style><radialGradient id="radial-gradient" cx="93.06" cy="93.49" r="86.94" gradientUnits="userSpaceOnUse"><stop offset="0" stop-color="#595959"/><stop offset="1"/></radialGradient></defs><g id="Layer_2" data-name="Layer 2"><g id="Layer_1-2" data-name="Layer 1"><rect class="cls-1" x="6.12" y="6.55" width="173.88" height="173.88"/><path class="cls-2" d="M168.91,0H21.08A21.11,21.11,0,0,0,0,21.08V168.91A21.11,21.11,0,0,0,21.08,190H168.91A21.11,21.11,0,0,0,190,168.91V21.08A21.11,21.11,0,0,0,168.91,0ZM180,159.79,159.78,180H30.21L10,159.79V30.21L30.21,10H159.78L180,30.21Z"/><path class="cls-3" d="M101.14,114.27a6.17,6.17,0,0,0-12.31.6,6.14,6.14,0,0,0,2,4.57,2.47,2.47,0,0,1,.84,1.83v5.3a1.87,1.87,0,0,0,1.87,1.86h2.88a1.85,1.85,0,0,0,1.85-1.85v-5.32a2.52,2.52,0,0,1,.87-1.85A6.17,6.17,0,0,0,101.14,114.27Zm0,0a6.17,6.17,0,0,0-12.31.6,6.14,6.14,0,0,0,2,4.57,2.47,2.47,0,0,1,.84,1.83v5.3a1.87,1.87,0,0,0,1.87,1.86h2.88a1.85,1.85,0,0,0,1.85-1.85v-5.32a2.52,2.52,0,0,1,.87-1.85A6.17,6.17,0,0,0,101.14,114.27Zm0,0a6.17,6.17,0,0,0-12.31.6,6.14,6.14,0,0,0,2,4.57,2.47,2.47,0,0,1,.84,1.83v5.3a1.87,1.87,0,0,0,1.87,1.86h2.88a1.85,1.85,0,0,0,1.85-1.85v-5.32a2.52,2.52,0,0,1,.87-1.85A6.17,6.17,0,0,0,101.14,114.27Z"/><path class="cls-3" d="M131.72,92.87h-4V79.33a32.25,32.25,0,1,0-64.5,0V92.87h-5a4.9,4.9,0,0,0-4.88,4.9V138a4.89,4.89,0,0,0,4.88,4.9h73.45a4.89,4.89,0,0,0,4.89-4.9V97.77A4.9,4.9,0,0,0,131.72,92.87ZM95,133a15.07,15.07,0,1,1,15.06-15.06A15.07,15.07,0,0,1,95,133ZM112,92.87H79.08V77.22a16.44,16.44,0,1,1,32.87,0Z"/><path class="cls-4" d="M82,99.06a.31.31,0,0,0-.15.1Z"/><path class="cls-5" d="M82.17,97.63l-.14,0"/><path class="cls-4" d="M82.17,99.16a.28.28,0,0,0-.14-.1Z"/></g></g></svg>