<svg xmlns="http://www.w3.org/2000/svg" xmlns:xlink="http://www.w3.org/1999/xlink" viewBox="0 0 190 190"><defs><style>.cls-1{opacity:0.41;fill:url(#radial-gradient);}.cls-2{fill:#5cc5ff;}.cls-3{fill:#00e2ff;}.cls-4{fill:#072556;}.cls-5{fill:none;}</style><radialGradient id="radial-gradient" cx="93.06" cy="93.49" r="86.94" gradientUnits="userSpaceOnUse"><stop offset="0" stop-color="#595959"/><stop offset="1"/></radialGradient></defs><g id="Layer_2" data-name="Layer 2"><g id="Layer_1-2" data-name="Layer 1"><rect class="cls-1" x="6.12" y="6.55" width="173.88" height="173.88"/><path class="cls-2" d="M168.91,0H21.08A21.11,21.11,0,0,0,0,21.08V168.91A21.11,21.11,0,0,0,21.08,190H168.91A21.11,21.11,0,0,0,190,168.91V21.08A21.11,21.11,0,0,0,168.91,0ZM180,159.79,159.78,180H30.21L10,159.79V30.21L30.21,10H159.78L180,30.21Z"/><path class="cls-3" d="M102.29,149.75a21.09,21.09,0,0,1-1.54,6.54,51.42,51.42,0,0,1-6,11c-.09.13-.18.23-.25.33l-.25-.33a51.07,51.07,0,0,1-6-11,20.8,20.8,0,0,1-1.53-6.54c-.67-9.82-1.63-40.51-.76-57.79l2.18-1.72-.31-20.15L89,68a10.82,10.82,0,0,0,.6,3.14c.07.2.13.39.21.6a11.43,11.43,0,0,0,.89,1.84c.09.16.19.33.31.51s.22.33.35.51a6,6,0,0,0,.4.52,16,16,0,0,0,2.1,2.24l.06.08,1,.73.83-.54.28-.19.06-.08a16.57,16.57,0,0,0,2.1-2.24,4.4,4.4,0,0,0,.39-.52,5.88,5.88,0,0,0,.35-.51c.12-.18.22-.35.31-.51a10.64,10.64,0,0,0,.89-1.84c.09-.21.15-.4.22-.6s.13-.38.18-.57a8.09,8.09,0,0,0,.24-1.1,3.12,3.12,0,0,0,.11-.61A6.49,6.49,0,0,0,101,68l1.14,2.09-.3,20.15L104,92C104.89,109.24,103,139.93,102.29,149.75Z"/><path class="cls-4" d="M65.41,70a30.69,30.69,0,0,0,13.81-9.88l2.8-3.8c3.16,3.24,5.89,3.83,5.89,3.83l-1.45-3.7,5.15-3.39,0-14.72-.75-.87L91,37,87.55,33.6l.81-4c-1.45-1.69-1.18-2.32-1.18-2.32L85.42,25.1l3.21-2.73,3.2,1.74,3.3,0v.05h3l3.2-1.75,3.21,2.74-1.76,2.17s.26.63-1.18,2.32l.81,4L99,37l.15.53-.74.87,0,14.71,5.15,3.4-1.45,3.7A13.29,13.29,0,0,0,108,56.39l2.8,3.8a30.69,30.69,0,0,0,13.81,9.88s-11.39,4.37-14.5,4.13c0,0-2.84-2.22-4-8.44l-2.29.33.74,1.17-2.45,2.88-3.25-3.59L95,62.7l-3.84,3.81-3.25,3.58-2.45-2.87.74-1.17-2.29-.32c-1.14,6.2-4,8.43-4,8.43C76.79,74.4,65.41,70,65.41,70Z"/><path class="cls-5" d="M95,76.37a.08.08,0,0,0,0,0"/><path class="cls-4" d="M90.68,65.33,95,62.68l0,0,0,0,4.3,2.65s1.7,5.81-4.3,11a0,0,0,0,1-.08,0C89,71.14,90.68,65.33,90.68,65.33Z"/></g></g></svg>