<svg xmlns="http://www.w3.org/2000/svg" viewBox="0 0 190 190"><defs><radialGradient id="a" cx="93.06" cy="93.49" r="86.94" gradientUnits="userSpaceOnUse"><stop offset="0" stop-color="#595959"/><stop offset="1"/></radialGradient></defs><g data-name="Layer 2"><g data-name="Layer 1"><path opacity=".41" fill="url(#a)" d="M6.12 6.55H180v173.88H6.12z"/><path d="M168.91 0H21.08A21.11 21.11 0 000 21.08v147.83A21.11 21.11 0 0021.08 190h147.83A21.11 21.11 0 00190 168.91V21.08A21.11 21.11 0 00168.91 0zM180 159.79L159.78 180H30.21L10 159.79V30.21L30.21 10h129.57L180 30.21z" fill="#5cc5ff"/><path d="M121.36 70.9l-7.24-13a4.83 4.83 0 00-4.23-2.49H80.1a4.83 4.83 0 00-4.23 2.49l-7.24 13a4.83 4.83 0 01-4.23 2.5H48.66v56.38a4.85 4.85 0 004.85 4.85h83a4.85 4.85 0 004.85-4.85V78.24a4.84 4.84 0 00-4.85-4.84h-10.9a4.83 4.83 0 01-4.25-2.5zm-24.48 47.64a18.43 18.43 0 1116.44-16.43 18.44 18.44 0 01-16.44 16.43zM69.65 60.83L66.25 67a4.72 4.72 0 01-4.13 2.44h-13.4l.07-9a.79.79 0 01.79-.77H69a.78.78 0 01.65 1.16zM108 100.2a13 13 0 11-13-13 13 13 0 0113 13z" fill="#50ba11"/></g></g></svg>