<svg xmlns="http://www.w3.org/2000/svg" viewBox="0 0 190 190"><defs><radialGradient id="a" cx="93.06" cy="93.49" r="86.94" gradientUnits="userSpaceOnUse"><stop offset="0" stop-color="#595959"/><stop offset="1"/></radialGradient></defs><g data-name="Layer 2"><g data-name="Layer 1"><path opacity=".41" fill="url(#a)" d="M6.12 6.55H180v173.88H6.12z"/><path d="M168.91 0H21.08A21.11 21.11 0 000 21.08v147.83A21.11 21.11 0 0021.08 190h147.83A21.11 21.11 0 00190 168.91V21.08A21.11 21.11 0 00168.91 0zM180 159.79L159.78 180H30.21L10 159.79V30.21L30.21 10h129.57L180 30.21z" fill="#5cc5ff"/><path d="M135.89 102.25l-11.43 5a.92.92 0 01-.84 0l-7.71-4.44a.92.92 0 01-.47-.8V88a.92.92 0 01.47-.8l7.71-4.44a.92.92 0 01.84 0l11.43 5a.93.93 0 001.23-.48l2-4.7a.93.93 0 00-.48-1.23L133.27 79a.94.94 0 01-.09-1.67l5.18-3a.93.93 0 00.34-1.27l-2.57-4.46a.93.93 0 00-1.27-.34l-5.63 3.24a.93.93 0 01-1.39-.87l.49-7.56a.93.93 0 00-.87-1l-5.12-.33a.93.93 0 00-1 .87l-.87 13.46a.92.92 0 01-.47.74l-7.39 4.26a1 1 0 01-.93 0L99.37 74a.92.92 0 01-.47-.8v-8.73a.91.91 0 01.38-.75l10-7.43a.92.92 0 00.2-1.3l-3.06-4.14a.94.94 0 00-1.31-.19l-4.75 3.52a.93.93 0 01-1.49-.75v-6a.93.93 0 00-.93-.94h-5.1a.94.94 0 00-.94.94V54a.93.93 0 01-1.45.78l-6.31-4.21a.93.93 0 00-1.29.26L80 55.06a.93.93 0 00.26 1.29l11.23 7.48a.91.91 0 01.41.77v8.15a.91.91 0 01-.46.8l-12.6 7.28a.94.94 0 01-.93 0l-7.18-4.15a1 1 0 01-.46-.7l-1.4-12.4a.93.93 0 00-1-.82l-5.11.57a.93.93 0 00-.82 1l.67 5.89a.94.94 0 01-1.4.91l-5.18-3a.93.93 0 00-1.27.34l-2.57 4.45a.93.93 0 00.34 1.27l5.63 3.25a.94.94 0 01-.06 1.65l-6.8 3.35a.93.93 0 00-.42 1.25l2.27 4.61a.93.93 0 001.25.42l12.1-6a.92.92 0 01.88 0l6.87 4a.91.91 0 01.46.8v14.88a.91.91 0 01-.46.8l-6.88 4a.92.92 0 01-.88 0l-12.09-6a.93.93 0 00-1.25.42l-2.27 4.61a.93.93 0 00.42 1.25l6.79 3.34a.94.94 0 01.06 1.65l-5.62 3.25a.93.93 0 00-.34 1.27l2.57 4.45a.93.93 0 001.27.34l5.18-3a.94.94 0 011.4.91l-.67 5.9a.93.93 0 00.82 1l5.11.57a.93.93 0 001-.82l1.4-12.34a1 1 0 01.46-.7l7.18-4.15a.94.94 0 01.93 0l12.6 7.29a.91.91 0 01.46.8v8.15a.91.91 0 01-.41.77l-11.23 7.48a.93.93 0 00-.26 1.29l2.85 4.28a.93.93 0 001.29.26l6.31-4.21a.93.93 0 011.45.78v6.49a.94.94 0 00.94.94H98a.93.93 0 00.93-.94v-6a.93.93 0 011.49-.75l4.75 3.52a.94.94 0 001.31-.19l3.06-4.14a.92.92 0 00-.2-1.3l-10-7.43a.91.91 0 01-.38-.74v-8.69a.92.92 0 01.47-.8l12.3-7.11a1 1 0 01.93 0l7.4 4.26a.92.92 0 01.47.74l.87 13.45a.93.93 0 001 .87l5.12-.33a.93.93 0 00.87-1l-.49-7.55a.93.93 0 011.39-.87l5.63 3.24a.93.93 0 001.27-.34l2.51-4.37a.93.93 0 00-.35-1.27l-5.18-3a.94.94 0 01.09-1.67l5.43-2.36a.93.93 0 00.48-1.23l-2-4.71a.93.93 0 00-1.28-.51zM95.4 95zm-3.5-15.48v7.79a.94.94 0 01-1.4.81l-6.74-3.91a.93.93 0 010-1.61l6.75-3.89a.93.93 0 011.39.81zM80.08 90.18l6.93 4a.93.93 0 010 1.61l-6.93 4a.93.93 0 01-1.4-.8V91a.93.93 0 011.4-.82zm3.68 15.6l6.74-3.91a.94.94 0 011.4.81v7.79a.93.93 0 01-1.39.81l-6.75-3.89a.93.93 0 010-1.61zm16.54-26.67l6.43 3.71a.93.93 0 010 1.61l-6.43 3.71a.93.93 0 01-1.4-.81v-7.41a.93.93 0 011.4-.81zm-1.4 31v-7.41a.93.93 0 011.4-.81l6.43 3.7a.93.93 0 010 1.61l-6.43 3.72a.93.93 0 01-1.4-.84zm11.15-10.69l-6.23-3.58a.93.93 0 010-1.61l6.23-3.59a.93.93 0 011.39.81v7.16a.93.93 0 01-1.39.78zM95.4 95h-.01.01zm0 0h-.01.01zm0 0h-.01.01z" fill="#c2fcfe"/></g></g></svg>