<svg xmlns="http://www.w3.org/2000/svg" viewBox="0 0 190 190"><defs><radialGradient id="radial-gradient" cx="93.06" cy="93.49" r="86.94" gradientUnits="userSpaceOnUse"><stop offset="0" stop-color="#595959"/><stop offset="1"/></radialGradient><style>.cls-3{fill:#f40300}</style></defs><g id="Layer_2" data-name="Layer 2"><g id="Layer_1-2" data-name="Layer 1"><path opacity=".41" fill="url(#radial-gradient)" d="M6.12 6.55H180v173.88H6.12z"/><path d="M168.91 0H21.08A21.11 21.11 0 000 21.08v147.83A21.11 21.11 0 0021.08 190h147.83A21.11 21.11 0 00190 168.91V21.08A21.11 21.11 0 00168.91 0zM180 159.79L159.78 180H30.21L10 159.79V30.21L30.21 10h129.57L180 30.21z" fill="#5cc5ff"/><path class="cls-3" d="M60.83 116c.12.6.23 1.2.37 1.79.26 1.2.54 2.38.8 3.58.16.75-.17 1.16-.91 1.37a7.33 7.33 0 01-8.44-3.72 11.34 11.34 0 01-1.16-5.84 6.75 6.75 0 013.44-5.42 14.58 14.58 0 012.69-1.32 1.12 1.12 0 00.83-1.42c-.37-2.45-.71-4.91-1.06-7.36a79.84 79.84 0 01-.46-15.3 3.61 3.61 0 012-3.23c2-1.08 3.84-2.36 5.73-3.59 3.52-2.3 4.59-5.53 3.35-9.47-.72-2.29-1.69-4.5-2.62-6.72a1.43 1.43 0 010-1.47c1.47-2.36 2.9-4.75 4.38-7.12a3.1 3.1 0 013.86-1.48c2.3.69 4.63 1.31 6.91 2.08a6.32 6.32 0 014.19 4.37c.82 2.67 1.67 5.32 2.43 8a3.24 3.24 0 001.6 2 39.43 39.43 0 014 2.65c3.43 2.62 3.13 8.31 1.6 10.68a7.14 7.14 0 01-5.24 3.13c-4 .64-6.65-.9-8.07-4.74a18.91 18.91 0 00-1-2.58 3.78 3.78 0 000 .82 47.76 47.76 0 001 5.06 36.49 36.49 0 011 15c-.58 5.19.63 10.16 2.3 15a3.8 3.8 0 00.39.64c-.11-.92-.18-1.6-.27-2.28-.42-3.17.71-4.86 3.82-5.66 4.44-1.14 9.09 1.75 9.76 6.07a8.53 8.53 0 01-5.4 8.78c-1.54.52-3.12.94-4.7 1.35a1.73 1.73 0 00-1.45 1.67c-.4 2.94-.91 5.88-1.41 8.81a4 4 0 01-.49 1c-.33-.21-.8-.35-1-.65a72.55 72.55 0 01-3.41-6.47A122 122 0 0172.1 95.6q-.54-3.34-1.23-6.66c-.08-.37-.48-.93-.75-.94-.61 0-1 .44-1 1.12-.08 2.66-.24 5.33-.23 8 0 13.3 3.35 25.86 8.74 37.94.74 1.65 1.39 3.35 2 5.05a3 3 0 01-.06 1.14c-.38-.06-.87 0-1.13-.21a39.76 39.76 0 01-4-3.5 58 58 0 01-11.2-17.27c-.64-1.52-1.38-3-2.08-4.49zm27.9-75.68c-.24 2.21-.46 4.42-.73 6.62a6.8 6.8 0 01-.43 1.44 1.86 1.86 0 01-2 1.35 20.79 20.79 0 01-3.57-.54 30.9 30.9 0 01-10.39-4.9c-3.1-2.27-3.29-3.69-.78-6.6a43 43 0 0112.42-9.79 6.69 6.69 0 011-.42c1.86-.73 2.44-.47 3 1.47a39.72 39.72 0 011.32 9.94v1.41zm38.56 113.62a18.22 18.22 0 01-1.57 1.48 29.34 29.34 0 01-10 4.44c-9.28 2.38-17.39-.2-24.79-5.81a33.25 33.25 0 01-6.87-6.79c-1.84-2.51-1.19-4.41 1.76-5.43a3.45 3.45 0 014 .76c1.88 1.85 3.78 3.68 5.77 5.4s3.78 3.11 5.78 4.52c5.63 4 11.85 4.84 18.46 3.13 1.91-.49 3.77-1.15 5.66-1.71.53-.16 1.07-.25 1.6-.38zm25.78-2.67c-.91 1-1.74 1.92-2.6 2.82s-1.51 1.59-2.32 2.34a1.14 1.14 0 00-.2 1.75c.76 1.11 1.41 2.3 2.09 3.46.18.32.3.66.56 1.23a13.91 13.91 0 01-1.73 0 10.36 10.36 0 01-7.17-4.37 1.53 1.53 0 01-.18-1.18 12.85 12.85 0 00-5-14.76 1.28 1.28 0 01-.51-.7c-.29-2.76 2.71-7.08 5.36-7.85.23 1.53.46 3.07.71 4.6a1.67 1.67 0 001.54 1.51c1.7.28 3.39.62 5.08.94.48.09 1 .2 1.65.35l-1.74 3.12-1.74 3.1z"/><path class="cls-3" d="M67 68.4a7.94 7.94 0 11-8-7.92 7.91 7.91 0 018 7.92zm-16.09-4.65a9 9 0 01-2 4.48 1.46 1.46 0 01-1.86.42A8.84 8.84 0 0143 64.76a1.71 1.71 0 01.18-1.94 9.26 9.26 0 014-3 1.27 1.27 0 01.64-.07c1.18.16 3.18 2.58 3.09 4zM96.2 78.56v-.59c.14-2.87.59-3.63 3.93-4.58a1.37 1.37 0 011.67.52 28 28 0 012.07 3.85 1.71 1.71 0 01-1 2.5 19.6 19.6 0 01-4.4 1.46c-1.37.26-1.84-.21-2.14-1.6a14.4 14.4 0 01-.13-1.56zm-44.42 41.3a10.71 10.71 0 01-.68 1.67 6.23 6.23 0 01-1.05 1.19c-1.55 1.44-2.23 1.51-3.88.17a17.14 17.14 0 01-2.33-2.41 1.75 1.75 0 010-2.26 9.23 9.23 0 014.08-3.22c1-.42 1.71-.27 2.21.74.67 1.35 1.13 2.8 1.65 4.12zm47.67-8.72c.2-1 .35-2 .6-2.93a1.46 1.46 0 011.72-1.13 9.17 9.17 0 015 2.18 1.85 1.85 0 01.52 2.14 9.34 9.34 0 01-2.62 3.95 1.63 1.63 0 01-.93.38 4.42 4.42 0 01-4.15-3.82l-.06-.75zm30.67 37.19c.12-.66.2-1.45.4-2.19.28-1 .66-1.13 1.61-.71a8.12 8.12 0 014.31 9q-.09.36-.21.72c-.51 1.56-.79 1.68-2.23.82a8.23 8.23 0 01-3.63-5.68 20 20 0 01-.25-1.96zm-18.68-83.15c-2-.17-2.46-.69-1.84-2.55a20.65 20.65 0 011.87-4c.51-.87 1.06-.9 1.89-.32a8.89 8.89 0 013.16 3.86c.42 1 .23 1.54-.76 1.86-1.4.52-2.88.79-4.32 1.15zM44 138.11c-.19 1-.37 2.11-.61 3.2a1.06 1.06 0 01-1.4.89 8.68 8.68 0 01-4.74-2.83 1.1 1.1 0 01.08-1.61 10.29 10.29 0 015.19-2.82.84.84 0 011.1.73c.15.77.23 1.54.38 2.44zm1-93.66c-.16.9-.28 1.9-.51 2.87a1 1 0 01-1.55.8 11.12 11.12 0 01-4.41-2.94c-.76-.84-.73-1.42.12-2.16a9.37 9.37 0 014.54-2.11 1.14 1.14 0 011.49 1c.14.82.21 1.63.32 2.54zm68.13 80.33c1.51.47 3.05.86 4.51 1.46 1.1.45 1.22 1.07.63 2.11a8.84 8.84 0 01-3.39 3.42c-.91.53-1.51.44-1.93-.52a25.53 25.53 0 01-1.55-4.48c-.33-1.46.13-1.84 1.66-1.76zm-68.28 2.8c-1.67-.74-3.18-1.38-4.66-2.1-.22-.1-.31-.56-.38-.88a1.31 1.31 0 01.12-.63c.88-2.92 2-3.31 4.38-1.46a23.11 23.11 0 012 1.88 1.1 1.1 0 01.18 1.53 21.81 21.81 0 01-1.64 1.66zm-5.48-69.26c.33-.41.54-.93.88-1a34.2 34.2 0 014.4-1.22c.86-.16 1.28.65 1.64 1.32a1.16 1.16 0 01-.24 1.58c-1.24.89-2.49 1.77-3.78 2.56a1.1 1.1 0 01-1.71-.56c-.39-.85-.75-1.7-1.19-2.68zm73.18 56.16a5.21 5.21 0 01-.71 1.13c-1.09.83-2.19 1.65-3.35 2.38-.88.56-1.6 0-2.26-.58a1.28 1.28 0 01-.19-1.85c.79-1.15 1.61-2.29 2.49-3.37a1.17 1.17 0 011.94-.06c.71.75 1.37 1.55 2.08 2.35zm-9.67-41.4c0-1.14 1.77-2.25 2.57-1.69a28.52 28.52 0 013.6 3.09 1.38 1.38 0 01-.07 1.33 17.08 17.08 0 01-2.3 2 .82.82 0 01-.76 0 9.28 9.28 0 01-3.04-4.73zm11.3 51.23a4.94 4.94 0 00-.39-.76 7.39 7.39 0 00-3.62-2.7c-.87-.31-1-.78-.64-1.6a4.67 4.67 0 012.78-2.37 1.49 1.49 0 011.88.64 7.85 7.85 0 01.64 6.15.46.46 0 01-.16.23.94.94 0 01-.23.16zM40 134.67a6.39 6.39 0 01-1.5-4 7.48 7.48 0 01.14-2.31 1.53 1.53 0 011.78-1.3 4.57 4.57 0 013.32 1.7c.38.46.52 1-.05 1.39a8.53 8.53 0 00-3.28 4.1c-.02.17-.19.25-.41.42zm-1.55-81.33c.52-1.45 1-2.92 1.59-4.36.11-.26.5-.42.76-.62a3.53 3.53 0 01.48.75 7.78 7.78 0 002.48 3.69c.74.63.77 1.19 0 1.77a7 7 0 01-2.24 1.13c-1.86.5-2.81-.32-2.8-2.26zM113 67.84a30.94 30.94 0 01-1.06 3.86c-.65 1.6-1.87 1.89-3.23.8a7.21 7.21 0 01-1.71-2.07c-.49-.88-.2-1.37.82-1.64a7.65 7.65 0 003.73-2.25 3.17 3.17 0 01.75-.47 4.19 4.19 0 01.4.79 5.76 5.76 0 01.11.93z"/></g></g></svg>