<svg xmlns="http://www.w3.org/2000/svg" viewBox="0 0 190 190"><defs><radialGradient id="a" cx="93.06" cy="93.49" r="86.94" gradientUnits="userSpaceOnUse"><stop offset="0" stop-color="#595959"/><stop offset="1"/></radialGradient></defs><g data-name="Layer 2"><g data-name="Layer 1"><path opacity=".41" fill="url(#a)" d="M6.12 6.55H180v173.88H6.12z"/><path d="M168.91 0H21.08A21.11 21.11 0 000 21.08v147.83A21.11 21.11 0 0021.08 190h147.83A21.11 21.11 0 00190 168.91V21.08A21.11 21.11 0 00168.91 0zM180 159.79L159.78 180H30.21L10 159.79V30.21L30.21 10h129.57L180 30.21z" fill="#5cc5ff"/><path d="M150 103c-.08-.66-.14-1.35-.27-2s-.33-1.61-.56-2.41c-.17-.62-.4-1.27-.63-1.88a27.26 27.26 0 00-2.95-5.79c-.27-.46-.57-.88-.88-1.31 0 0 0-.07-.08-.07a12.21 12.21 0 00-1.17-1.54 28.38 28.38 0 00-3.29-3.49c-.54-.53-1.08-1-1.65-1.49a45.23 45.23 0 00-4.26-3.22c-.73-.5-1.53-1-2.34-1.46s-1.61-.92-2.45-1.38l-2.57-1.27-.65-.3c-.27-.16-.65-.35-1.08-.58s-.92-.46-1.52-.8c-.27-.16-.62-.31-.93-.5s-.65-.35-1-.54c-.11 0-.22-.11-.38-.19-.31-.19-.65-.35-1-.54l-1.07-.61c-.62-.35-1.27-.73-2-1.07-2.34-1.35-4.93-2.88-7.62-4.57-1-.61-2-1.3-3.08-1.95a121.72 121.72 0 01-12-8.75 11 11 0 01-1.34-1.15c-1.23-1.14-2.45-2.3-3.56-3.45a7.59 7.59 0 00-10.32-.53c-2 1.64-4.45 3.68-7.06 6-.87.76-1.76 1.57-2.68 2.41a154.88 154.88 0 00-16 16.87c-.46.58-.88 1.12-1.35 1.69l-.69.92c-.81 1-1.54 2.11-2.26 3.15-1.23 1.8-2.41 3.6-3.45 5.48-.35.57-.66 1.15-1 1.72a47.34 47.34 0 00-3.71 8.86v.16a24.65 24.65 0 00-1.32 7.86c0 .61 0 1.26.09 1.88 0 .34.07.72.11 1.11v.07a.24.24 0 000 .16l.12.92c.07.46.19.92.3 1.38a9.92 9.92 0 00.34 1.38c.12.34.23.73.36 1.11a8.87 8.87 0 00.42 1.15 16.74 16.74 0 00.72 1.61 14.51 14.51 0 00.65 1.31 18.75 18.75 0 001.23 2.07c.34.53.69 1.07 1.07 1.57a35.16 35.16 0 005.56 6c1 .88 2.08 1.72 3.18 2.57s2.3 1.57 3.53 2.34 2.53 1.45 3.85 2.14c.68.31 1.33.66 2 1s1.42.65 2.11.92 1.42.58 2.14.88 1.65.58 2.5.85c1.11.38 2.19.73 3.33 1s2.26.62 3.42.89a76.29 76.29 0 0012.42 1.8l2.27.11c1.1 0 2.22.08 3.37.08 30.44 0 55.15-16.26 55.15-36.31A22 22 0 00150 103zm-64.85 10.89c-19.8 0-35.82-8.06-35.82-18v-.92c.7-10.36 19.74-26.3 29.58-34.48 7.29-6.06 5.19-2.5 9.86 1.58a8.36 8.36 0 012.66 4 19.43 19.43 0 0014.31 13.84c12.17 2.86 15.19 8.8 15.19 16 .07 9.92-15.99 17.98-35.78 17.98z" fill="#8e5b11"/></g></g></svg>