<svg xmlns="http://www.w3.org/2000/svg" viewBox="0 0 190 190"><defs><radialGradient id="a" cx="93.06" cy="93.49" r="86.94" gradientUnits="userSpaceOnUse"><stop offset="0" stop-color="#595959"/><stop offset="1"/></radialGradient></defs><g data-name="Layer 2"><g data-name="Layer 1"><path opacity=".41" fill="url(#a)" d="M6.12 6.55H180v173.88H6.12z"/><path d="M168.91 0H21.08A21.11 21.11 0 000 21.08v147.83A21.11 21.11 0 0021.08 190h147.83A21.11 21.11 0 00190 168.91V21.08A21.11 21.11 0 00168.91 0zM180 159.79L159.78 180H30.21L10 159.79V30.21L30.21 10h129.57L180 30.21z" fill="#5cc5ff"/><path d="M99.74 67.26l-13.9-13.91a2.87 2.87 0 010-4.06l8.65-8.66a2.87 2.87 0 014.07 0l13.91 13.9a2.87 2.87 0 010 4.06l-8.66 8.67a2.89 2.89 0 01-4.07 0zM117 99.1a2.89 2.89 0 00-4.07 0l-22.36 22.38-.09-.09A14.42 14.42 0 0170.08 101l22.38-22.39a2.89 2.89 0 000-4.07l-13.9-13.9a2.89 2.89 0 00-4.07 0L51.15 84A38.81 38.81 0 00106 138.85l23.34-23.33a2.89 2.89 0 000-4.07zm15.94-20l-8.66 8.66a2.89 2.89 0 000 4.07l12.35 12.35a2.89 2.89 0 004.07 0l8.66-8.67a2.87 2.87 0 000-4.06L137 79.09a2.89 2.89 0 00-4 0z" fill="#ff4573"/></g></g></svg>