<svg xmlns="http://www.w3.org/2000/svg" viewBox="0 0 190 190"><defs><radialGradient id="a" cx="93.06" cy="93.49" r="86.94" gradientUnits="userSpaceOnUse"><stop offset="0" stop-color="#595959"/><stop offset="1"/></radialGradient></defs><g data-name="Layer 2"><g data-name="Layer 1"><path opacity=".41" fill="url(#a)" d="M6.12 6.55H180v173.88H6.12z"/><path d="M168.91 0H21.08A21.11 21.11 0 000 21.08v147.83A21.11 21.11 0 0021.08 190h147.83A21.11 21.11 0 00190 168.91V21.08A21.11 21.11 0 00168.91 0zM180 159.79L159.78 180H30.21L10 159.79V30.21L30.21 10h129.57L180 30.21z" fill="#5cc5ff"/><path d="M80.43 154.76c-3.87 19.47 1.38 12.06-10.73 14-9.28 1.5-14.25-2.74-15.65-6.41-.86-2.28.78-4.63 1.94-6.44 4-6.36 5.88-12.41 8-17.38 3.19-7.59 6.13-13.07 6.72-17.94 1.27-10.52-1-15.11 5.23-17.4 3.28-1.19 6-7.53 9.66-14.84 2.45-4.86 6-10 8.23-15.58 1.8-4.56 4-8.62 5.64-12.54a16.22 16.22 0 005.76 4 14.66 14.66 0 006 1.3 4.72 4.72 0 012.24.46 17.25 17.25 0 009 1.44c-5.07 9.3-12 13.86-15.55 16.45-2.18 1.6-4 4.15-3.5 6.84 1.13 6.55-.29 7.75-5.3 14.76-2.26 3.16-7 6.65-9.86 13.4-1.78 4.15-1.17 10.18-3.09 16.35a175.17 175.17 0 00-4.74 19.53zm34.14-91.32c-3.81-1.62-4.45-.12-8.27-1.75-6-2.56-8.06-9.25-6.22-13.55 2.77-6.5 1.49-7 4.26-13.54 1.83-4.31 8.85-5.72 14.86-3.15 3.81 1.62 3.38 2.64 7.19 4.27 6 2.56 11.26 8 9.43 12.3-2.77 6.5-5.77 5.22-8.54 11.72-1.83 4.26-6.7 6.26-12.71 3.7z" fill="#ef941b"/></g></g></svg>