<svg xmlns="http://www.w3.org/2000/svg" viewBox="0 0 190 190"><defs><radialGradient id="a" cx="93.06" cy="93.49" r="86.94" gradientUnits="userSpaceOnUse"><stop offset="0" stop-color="#595959"/><stop offset="1"/></radialGradient></defs><g data-name="Layer 2"><g data-name="Layer 1"><path opacity=".41" fill="url(#a)" d="M6.12 6.55H180v173.88H6.12z"/><path d="M168.91 0H21.08A21.11 21.11 0 000 21.08v147.83A21.11 21.11 0 0021.08 190h147.83A21.11 21.11 0 00190 168.91V21.08A21.11 21.11 0 00168.91 0zM180 159.79L159.78 180H30.21L10 159.79V30.21L30.21 10h129.57L180 30.21z" fill="#5cc5ff"/><path d="M135.66 99.62v1.62a3 3 0 010 .42c0 .49-.05 1-.09 1.48s-.09 1-.15 1.53c0 .34-.08.68-.13 1s-.09.67-.15 1c0 .1 0 .2-.05.3a45 45 0 01-34.2 36.39c-.83.19-1.66.36-2.5.5-.42.08-.84.14-1.27.2l-1 .13-.77.09h-.25c-.32 0-.64.06-1 .09H94l-1.07.07h-2.27a44.78 44.78 0 01-30.46-11.9l-.9-.84a45.54 45.54 0 01-7.93-10.33c-.37-.68-.73-1.37-1.08-2.06a45.49 45.49 0 01-2.2-5.32c-.37-1.08-.7-2.18-1-3.29a45.25 45.25 0 01-.69-19.41c.19-1 .41-2 .66-3s.54-2 .87-3q.33-1 .69-2c.25-.65.52-1.29.79-1.93.14-.31.29-.63.43-1 .3-.63.61-1.26.93-1.88l.5-.93a45.41 45.41 0 016.29-8.7l.84-.89c.28-.29.57-.58.86-.86.57-.56 1.16-1.11 1.76-1.64.9-.79 1.84-1.54 2.79-2.25.5-.37 1-.74 1.53-1.09l.78-.52c.85-.56 1.72-1.08 2.61-1.58s1.58-.85 2.39-1.24c.58-.28 1.17-.55 1.76-.8 1.18-.51 2.37-1 3.58-1.36.5-.17 1-.32 1.5-.46a45 45 0 0112.71-1.83h1.53l1.53.07c.51 0 1 .08 1.53.14s1 .11 1.53.18a9.25 9.25 0 002.3 10.24l1.6 1.47a7.69 7.69 0 012.31 6.83c-.27 2.7.29 6.73 4.52 10.62a12.39 12.39 0 008.5 3.65 11.08 11.08 0 002.72-.34 7.92 7.92 0 012-.26 6.51 6.51 0 014.49 1.69l3.63 3.38a8.71 8.71 0 005.93 2.32h.55c0 .42.09.83.13 1.25v.18c0 .34 0 .67.07 1 0 .52.06 1.05.08 1.57s.04.86.04 1.3zM68.74 60.3c-.88.49-1.76 1-2.61 1.58.87-.56 1.72-1.08 2.61-1.58zm66.31 46.75v-.3c0 .1 0 .2-.05.3zm4.82-35.29a15.4 15.4 0 01-10.65 4.63 44.54 44.54 0 015.59 14.5 4.88 4.88 0 01-1.14.15 4.83 4.83 0 01-3.41-1.37l-3.55-3.5a10.86 10.86 0 00-10.09-2.69c-2.08.46-4.68.09-7.43-2.61s-3.29-5.3-3-7.38a11.65 11.65 0 00-3.24-10L101.4 62a5.19 5.19 0 01-.87-6.29 44.08 44.08 0 0112.79 5 15.5 15.5 0 1126.55 11zm-6.49-15.5a6.5 6.5 0 10.08 9.2 6.51 6.51 0 00-.08-9.2z" fill="#00e2ff"/></g></g></svg>