<svg xmlns="http://www.w3.org/2000/svg" viewBox="0 0 190 190"><defs><radialGradient id="radial-gradient" cx="93.06" cy="93.49" r="86.94" gradientUnits="userSpaceOnUse"><stop offset="0" stop-color="#595959"/><stop offset="1"/></radialGradient><style>.cls-3{fill:#00e2ff}</style></defs><g id="Layer_2" data-name="Layer 2"><g id="Layer_1-2" data-name="Layer 1"><path opacity=".41" fill="url(#radial-gradient)" d="M6.12 6.55H180v173.88H6.12z"/><path d="M168.91 0H21.08A21.11 21.11 0 000 21.08v147.83A21.11 21.11 0 0021.08 190h147.83A21.11 21.11 0 00190 168.91V21.08A21.11 21.11 0 00168.91 0zM180 159.79L159.78 180H30.21L10 159.79V30.21L30.21 10h129.57L180 30.21z" fill="#5cc5ff"/><path class="cls-3" d="M141.21 73.31v67.19a5.73 5.73 0 01-5.72 5.73h-81a5.73 5.73 0 01-5.72-5.73V73.31a5.73 5.73 0 015.72-5.73H65.4a9.27 9.27 0 009.09 10.69h2.17a7.69 7.69 0 016.1 3.25c1.62 2.17 4.78 4.75 10.53 4.75s8.95-2.81 10.47-5.16a6.9 6.9 0 015.73-3.34h5a8.82 8.82 0 008.8-8.77 8.19 8.19 0 00-.13-1.4h12.33a5.73 5.73 0 015.72 5.71z"/><path class="cls-3" d="M119.08 67.6h-11.72a15.49 15.49 0 10-26.16 0H69.47a5.22 5.22 0 00-.18 1.4v.09a5.2 5.2 0 005.2 5.2h2.17A11.7 11.7 0 0186 79.13c1.26 1.69 3.46 3.14 7.33 3.14s6-1.56 7.12-3.33a10.89 10.89 0 019.09-5.17h5a4.8 4.8 0 004.75-4.77 4.85 4.85 0 00-.21-1.4zM94.29 52.77a6.5 6.5 0 11-6.5 6.5 6.51 6.51 0 016.5-6.5z"/></g></g></svg>