<svg xmlns="http://www.w3.org/2000/svg" viewBox="0 0 190 190"><defs><radialGradient id="radial-gradient" cx="93.06" cy="93.49" r="86.94" gradientUnits="userSpaceOnUse"><stop offset="0" stop-color="#595959"/><stop offset="1"/></radialGradient><style>.cls-3{fill:#50ba11}</style></defs><g id="Layer_2" data-name="Layer 2"><g id="Layer_1-2" data-name="Layer 1"><path opacity=".41" fill="url(#radial-gradient)" d="M6.12 6.55H180v173.88H6.12z"/><path d="M168.91 0H21.08A21.11 21.11 0 000 21.08v147.83A21.11 21.11 0 0021.08 190h147.83A21.11 21.11 0 00190 168.91V21.08A21.11 21.11 0 00168.91 0zM180 159.79L159.78 180H30.21L10 159.79V30.21L30.21 10h129.57L180 30.21z" fill="#5cc5ff"/><path class="cls-3" d="M74.44 103.06c-.23-.29-.45-.58-.69-.86-2-2.23-3.12-4.69-2.65-7.77a3.06 3.06 0 00-1.62-3.2 42.54 42.54 0 00-4.3-1.91c-3.83-1.61-7.75-3-11.48-4.85C48.67 82 46 78 46.22 72.19a23.6 23.6 0 00-.16-3 11.61 11.61 0 00-3.43-7.39 31.41 31.41 0 00-8-5.88 17.42 17.42 0 01-5.83-4.74 9.54 9.54 0 01-1.58-2.86A3.78 3.78 0 0129 44.05c1.14-.75 2.07-.72 3.56.66C35 47 37.32 49.56 39.78 51.9c1.62 1.53 3.39 2.91 5.13 4.31.25.21.7.18 1.05.25a4.3 4.3 0 00.09-1.07 7.17 7.17 0 00-.39-1.39c-.81-2.34-2.37-4.21-3.81-6.17-2.52-3.43-4.94-6.93-7.41-10.39a4.84 4.84 0 010-6.14 14.59 14.59 0 013.36-3.25c2.39-1.62 4.12-1.3 5.74 1.09a62.42 62.42 0 014 6.87 67.49 67.49 0 0015.04 20.47c4.38 3.94 8.89 7.76 13.51 11.4a150 150 0 0018.2 12.39 5.13 5.13 0 012.89 5c-.18 3.84 3.82 7.73 7.6 7.55a5 5 0 014.77 2.63c.6.92 1.1 1.91 1.69 2.84a194.25 194.25 0 0021.26 28.09 62.57 62.57 0 0013.15 11.32c3.82 2.33 7.81 4.36 11.7 6.56a33.93 33.93 0 013.75 2.38c2 1.49 2.31 3 1.07 5.11a13.51 13.51 0 01-2.68 3.25c-2.45 2.17-5.31 2.16-7.94.19-3.88-2.91-7.7-5.91-11.67-8.69a31.71 31.71 0 00-5.24-2.54c-.29-.13-.72 0-1.08 0a6.1 6.1 0 00.26 1.14 4.84 4.84 0 00.68 1 60.18 60.18 0 008.13 8.3 21.73 21.73 0 013.36 3.8 2.32 2.32 0 01-.47 3.24 4 4 0 01-5.48.57 15.71 15.71 0 01-4.67-4.76c-1.45-2.21-2.83-4.47-4.29-6.68a11 11 0 00-8.74-5.34 50.84 50.84 0 01-8.24-1.61 12.74 12.74 0 01-7.52-5.55 51.54 51.54 0 01-5.58-12.29 44.06 44.06 0 00-1.65-4.42 3.83 3.83 0 00-4.47-2.36 7.14 7.14 0 01-4.47-.9 33.06 33.06 0 01-2.78-2c-.25-.17-.5-.36-.75-.54a6.88 6.88 0 002.41 3.82c1 .87 1 1.41 0 2.3a4.58 4.58 0 01-.84.6 11.24 11.24 0 01-6.48 1.32 6.45 6.45 0 01-4.46-2c-2.83-2.88-5.64-5.78-8.57-8.55-2.61-2.46-3.65-7.91-.84-12 1.19-1.72 1.82-1.32 2.78-.16a7.7 7.7 0 003.42 2.34zM64.38 63a15.42 15.42 0 00-7.63-2.22 6.92 6.92 0 00-7 5.59A13.19 13.19 0 0059 81.65c1.81.46 3.56.44 4.8-1.22A4.63 4.63 0 0062.59 73a11.78 11.78 0 00-2.11-.79 5.54 5.54 0 01-3.71-4.72c-.27-1.73.53-3 2.27-3.18a35.58 35.58 0 015.35.18 19.69 19.69 0 012.11.34l.15-.3c-.76-.53-1.48-1.09-2.27-1.53zm61.14 62.31a37.06 37.06 0 01.38 4.69c-.1 2.84-1.81 3.9-4.51 3a5.44 5.44 0 01-3.54-3.42c-.27-.74-.52-1.48-.8-2.22a3.46 3.46 0 00-2.72-2.23 5.9 5.9 0 00-4.36.78 3.86 3.86 0 00-1.75 4.43 12.24 12.24 0 005.77 8.18 12.62 12.62 0 009.52 1.77 6.81 6.81 0 005.71-7.17 16.59 16.59 0 00-3.69-9.69l-.29.08c.09.58.22 1.19.28 1.8zM72 117.65c-1.45-1.19-2.89-2.48-4.43-3.61-1.33-1-2.23-.71-2.59.88a37.38 37.38 0 00-.78 6c-.29 4.69.38 3.47-3.28 6.52-5 4.17-10.16 8.17-15.23 12.28-1.52 1.22-3 2.5-4.41 3.85a3.71 3.71 0 00-1.05 1.94 26.14 26.14 0 00-.4 4.67c0 1.2.43 1.52 1.65 1.41a23.19 23.19 0 004.06-.73 3.44 3.44 0 001.58-1.13q8.18-9.85 16.29-19.77l.06-.07a7.54 7.54 0 016.23-3.49 27.77 27.77 0 004.63-.88 3.74 3.74 0 00.7-.27c1.71-.77 1.93-1.46.8-2.94s-2.52-3.09-3.83-4.66z"/><path class="cls-3" d="M105.23 69.2a8.69 8.69 0 00-1.14 1 31.2 31.2 0 00-4.71 8 8 8 0 001.34 8.8 19.94 19.94 0 003.83 3.45 5.61 5.61 0 002.85.66 5 5 0 013 1 2.43 2.43 0 003.42-.07 1.9 1.9 0 00.54-2.6 1.84 1.84 0 01.31-2.41 2.17 2.17 0 012.69-.75 2 2 0 002.52-.32 2.17 2.17 0 00.65-2.66 19.08 19.08 0 00-1.92-2.89 7.31 7.31 0 00-1.47-1.47 2.62 2.62 0 01-1-3.28 34.26 34.26 0 012.66-5.4c1.74-2.73 3.72-5.31 5.55-8a7.67 7.67 0 00.64-1.76 5.71 5.71 0 00-1.9.49c-5.38 3.62-9.58 8.24-11.85 14.43a9.11 9.11 0 00-.26 6c.06.21.1.42.15.64a3.42 3.42 0 01-3.59 4.33 5.11 5.11 0 01-4.38-7.2 16.54 16.54 0 011.17-2 1 1 0 00-.19-1.51 1.48 1.48 0 01-.37-2c.45-1 1-1.91 1.41-2.88a8 8 0 00.39-1.26zm-39.81 59.91c-5.25 6.36-10.4 12.8-15 19.64a15 15 0 00-.93 1.54c-.45.86-.29 1.25.67 1.52a5.62 5.62 0 001.76.27c2.07-.13 4.14-.32 6.2-.54a3.37 3.37 0 002.88-2.25c1.51-3.7 3.12-7.36 4.53-11.1 1.19-3.12 2.17-6.31 3.21-9.48.32-1 0-1.25-1-1.12a3.14 3.14 0 00-2.32 1.52zm-3.3-3.86a11.25 11.25 0 001.06-2.11c.3-1-.09-1.38-1.12-1-3.67 1.22-7.36 2.41-11 3.77-3.18 1.19-6.28 2.61-9.42 3.89a3.61 3.61 0 00-2.44 3.18q-.28 3-.48 6a5.4 5.4 0 00.23 1.58c.28 1.12.71 1.36 1.67.73 2.24-1.46 4.49-2.92 6.62-4.53 4.96-3.76 9.83-7.6 14.88-11.51zm-20.73-55.6c1.42-1.43 1.07-5-.59-6a10.38 10.38 0 00-6.16-1.45A2.79 2.79 0 0032 64.37a6.62 6.62 0 00.36 5.06A3.24 3.24 0 0034.07 71a9.48 9.48 0 007-1.09 1.52 1.52 0 00.32-.26zm85.1 86.82a11 11 0 00.57-2.15 10.77 10.77 0 00-1.22-5.48c-.81-1.62-2.35-1.86-3.94-1.85a3 3 0 00-3 2.11 11.87 11.87 0 00-.81 5.27 3 3 0 002.19 2.78 7.23 7.23 0 004.55.14 12.12 12.12 0 001.66-.82zm-17.3-2.94a17 17 0 001.68 1c1.85.84 3 .56 3.94-1.22a31 31 0 001.82-4.82 2 2 0 00-1.07-2.38c-.24-.14-.48-.3-.73-.43-2.28-1.12-3-.94-4.24 1.25a36.68 36.68 0 00-1.9 4.3 2 2 0 00.5 2.3zM35.65 80.07a2.22 2.22 0 002.08.57 16.94 16.94 0 005.93-2.84 1.39 1.39 0 00.49-.77c.26-1.15-.77-3.62-1.81-4.15a2.45 2.45 0 00-1.71-.22 33.81 33.81 0 00-5 2c-1.42.73-1.67 1.67-1.14 3.19a19.71 19.71 0 001.16 2.22zm5.7 1.93a2.28 2.28 0 00.73 4 1.69 1.69 0 001.34 0 26.77 26.77 0 003.42-2.13c.92-.7 1-1.38.44-2.41a2 2 0 00-2.43-1.31 38.41 38.41 0 00-3.61 1.72zm66.09 66c.56-1.07 1.23-2.1 1.68-3.22A2.06 2.06 0 00108 142a1.77 1.77 0 00-2.69.59 18.89 18.89 0 00-1.72 2.69c-.72 1.39-.47 2.2.79 3.06 1.01.74 1.87.6 3.06-.34z"/></g></g></svg>