<svg xmlns="http://www.w3.org/2000/svg" viewBox="0 0 190 190"><defs><radialGradient id="radial-gradient" cx="93.06" cy="93.49" r="86.94" gradientUnits="userSpaceOnUse"><stop offset="0" stop-color="#595959"/><stop offset="1"/></radialGradient><style>.cls-4{fill:#fff}</style></defs><g id="Layer_2" data-name="Layer 2"><g id="Layer_1-2" data-name="Layer 1"><path opacity=".41" fill="url(#radial-gradient)" d="M6.12 6.55H180v173.88H6.12z"/><path d="M168.91 0H21.08A21.11 21.11 0 000 21.08v147.83A21.11 21.11 0 0021.08 190h147.83A21.11 21.11 0 00190 168.91V21.08A21.11 21.11 0 00168.91 0zM180 159.79L159.78 180H30.21L10 159.79V30.21L30.21 10h129.57L180 30.21z" fill="#5cc5ff"/><path d="M136.27 68.33s-.27 13.37-4.55 33.1c0 0-4.94 24.46-36.59 44.17l-.13.08-.13-.08c-31.65-19.71-36.59-44.17-36.59-44.17-4.28-19.73-4.55-33.1-4.55-33.1L94.87 44.4l.13-.08.13.08z" fill="#194b7c"/><path class="cls-4" d="M98.74 98.72s-1-1.09-1-.1c.23.23 0 1.12-1 .46a.16.16 0 00-.25.13c0 .77-.71 1-1.15.22-.3-.14.54 1.67-.25 2a.3.3 0 01-.26 0c-.79-.3 0-2.11-.25-2-.44.77-1.16.55-1.15-.22a.16.16 0 00-.25-.13c-1 .66-1.2-.23-1-.46 0-1-1 .1-1 .1s-.55.56-.4-.34c.41-2.45 3.15-3.53 3.71-3.72a.18.18 0 00.11-.15.81.81 0 01.19-.56.15.15 0 01.26 0 .81.81 0 01.19.56.18.18 0 00.11.15c.56.19 3.3 1.27 3.71 3.72.23.9-.32.34-.32.34zm-.04 10.99a1.23 1.23 0 00-.61.23c-1.19.94-2.09.47-2.34 2.18s.46.71.64 2.31a2 2 0 01-.26 1.55 1 1 0 00-.28.71v2.37a1.08 1.08 0 00.39.84 1.55 1.55 0 01.33.37 1.05 1.05 0 01-.07 1.22 5.31 5.31 0 01-.94.86 1.06 1.06 0 00-.42.8v.29A14.52 14.52 0 0195 125a14.52 14.52 0 01-.13-1.58v-.29a1.06 1.06 0 00-.42-.8 5.31 5.31 0 01-.94-.86 1.05 1.05 0 01-.07-1.22 1.8 1.8 0 01.33-.37 1.08 1.08 0 00.39-.84v-2.37a1 1 0 00-.28-.71 2 2 0 01-.26-1.55c.19-1.6.91-.47.64-2.31s-1.14-1.24-2.34-2.18a1.23 1.23 0 00-.61-.23c-.35 0-.69-.11-.64-.34s.22-.19.43-.21a1 1 0 00.67-.33 1.15 1.15 0 00.36-.65l.17-1.21a1 1 0 01.18-.46 11.55 11.55 0 011.81-2.1 1.07 1.07 0 00.4-.88 1.12 1.12 0 01.15-.73.14.14 0 01.26 0 1.12 1.12 0 01.15.73 1.07 1.07 0 00.4.88 12.45 12.45 0 011.82 2.1 1.07 1.07 0 01.17.46l.17 1.21a1.15 1.15 0 00.36.65 1 1 0 00.67.33c.21 0 .4.08.43.21s-.22.35-.57.36zM122 97.92l-14.6.08a.16.16 0 00-.16.18l.13 1.54a.18.18 0 00.16.15l13.76 1.13a.16.16 0 01.12.27 44.29 44.29 0 00-3 3.74.17.17 0 01-.19.06l-10.45-3a.17.17 0 00-.21.19 2.24 2.24 0 01-.3 1.35.16.16 0 00.07.23l8.58 4.33a.17.17 0 010 .31 23.25 23.25 0 01-5.26 1.25.2.2 0 01-.14-.06l-4.24-4.52a.16.16 0 00-.26 0 2.59 2.59 0 01-1.56.9.17.17 0 00-.13.24l3.48 6.46a.17.17 0 01-.16.24c-.87 0-3.41-.27-4.21-1a.17.17 0 01-.06-.1l-.86-5.2a.17.17 0 00-.22-.13c-.5.18-1.86.59-2.64-.06a.16.16 0 010-.11l-.4-3.25a.16.16 0 01.13-.18c1.17-.18 8.24-1.6 4.73-8.94a.19.19 0 010-.07c0-1.07.86-.83 2.48 2a.18.18 0 00.2.08c1.45-.51 14.7-5.13 18.25-5.53a.16.16 0 01.16.23l-3 7a.18.18 0 01-.2.19z"/><path class="cls-4" d="M102.43 120.35l1.42-2.52-4.43.2.43 1.45h-.06l-2-2 .5-.77 1.06.23-2.35-3.86a1.71 1.71 0 011.37-1.5l2.45 4.87 5 .55v.06l-3.42 3.32s.01 0 .03-.03zm-11.62-17.14l-.4 3.25a.16.16 0 010 .11c-.78.65-2.14.24-2.64.06a.17.17 0 00-.22.13l-.86 5.2a.23.23 0 010 .1c-.81.72-3.35.94-4.22 1a.17.17 0 01-.16-.24l3.48-6.46a.17.17 0 00-.13-.24 2.59 2.59 0 01-1.56-.9.16.16 0 00-.26 0l-4.34 4.48a.2.2 0 01-.14.06 23.38 23.38 0 01-5.26-1.25.17.17 0 010-.31l8.58-4.33a.16.16 0 00.07-.23 2.24 2.24 0 01-.3-1.35.17.17 0 00-.21-.19l-10.45 3a.17.17 0 01-.19-.06 44.29 44.29 0 00-3-3.74.16.16 0 01.12-.27l13.76-1.11a.18.18 0 00.16-.15l.13-1.54a.16.16 0 00-.17-.23l-14.55-.1a.18.18 0 01-.16-.1l-3-7a.16.16 0 01.16-.23c3.55.4 16.8 5 18.25 5.53a.18.18 0 00.2-.08C85.11 93.19 86 93 86 94a.19.19 0 010 .07c-3.51 7.34 3.56 8.76 4.73 8.94a.16.16 0 01.08.2zm1.02 13.52l.5.77-2 2h-.06l.43-1.45-4.43-.2 1.42 2.52s0 .07 0 0l-3.42-3.32v-.06l5-.55 2.45-4.87a1.71 1.71 0 011.37 1.5l-2.39 3.83 1.06-.23s.06.05.07.06zM95 72.45l4.81 8.33h-9.62L95 72.45zm4.81 8.33l4.8 8.33H95l4.81-8.33zm-9.62 0L95 89.11h-9.61l4.8-8.33z"/><path d="M95.13 44.4l-.13-.08-.13.08-41.14 23.93s.27 13.37 4.55 33.1c0 0 4.94 24.46 36.59 44.17l.13.08.13-.08c31.65-19.71 36.59-44.17 36.59-44.17 4.28-19.73 4.55-33.1 4.55-33.1zm28.62 64.42l-3.61-2-6.75 8 2.84 5.1c-1 2.76-14.65 12.89-14.65 12.89l-3-5h-7.1l-3 5s-13.7-10.13-14.65-12.89l2.84-5.1-6.75-8-3.61 2s-6.77-29.49-6.81-30.67l5.3.74s1.69-5.89 3.64-7.49L67 68.2l17.8-9.72L88.69 65l6.18.39h.26l6.18-.39 3.89-6.51L123 68.2l-1.45 3.2c2 1.62 3.64 7.49 3.64 7.49l5.3-.74c-.03 1.18-6.74 30.67-6.74 30.67z" fill="#ced3cc"/></g></g></svg>