<svg xmlns="http://www.w3.org/2000/svg" viewBox="0 0 190 190"><defs><radialGradient id="a" cx="93.06" cy="93.49" r="86.94" gradientUnits="userSpaceOnUse"><stop offset="0" stop-color="#595959"/><stop offset="1"/></radialGradient></defs><g data-name="Layer 2"><g data-name="Layer 1"><path opacity=".41" fill="url(#a)" d="M6.12 6.55H180v173.88H6.12z"/><path d="M168.91 0H21.08A21.11 21.11 0 000 21.08v147.83A21.11 21.11 0 0021.08 190h147.83A21.11 21.11 0 00190 168.91V21.08A21.11 21.11 0 00168.91 0zM180 159.79L159.78 180H30.21L10 159.79V30.21L30.21 10h129.57L180 30.21z" fill="#5cc5ff"/><path d="M95 42.85A52.15 52.15 0 10147.15 95 52.15 52.15 0 0095 42.85zm19.38 51.88a7.87 7.87 0 01-1.12 3.44l22.08 11.17a.53.53 0 01.32.48.81.81 0 01-.37.63c-2.4 1.79-9.75 3.73-12.89 3.9l-12.16-13c0 1.65-4.44 3.7-5.21 2.93l10.24 19s-9.87-.36-12.34-2.83l-2.47-14.81a15.21 15.21 0 01-4.75 1.78 2.84 2.84 0 00-.6 1.73v6.43a2.88 2.88 0 001.06 2.28 4.19 4.19 0 01.88 1 2.83 2.83 0 01-.17 3.3 15.13 15.13 0 01-2.54 2.33 2.84 2.84 0 00-1.15 2.19v.76a39.11 39.11 0 01-.35 4.27 34.31 34.31 0 01-.35-4.27v-.77a2.86 2.86 0 00-1.14-2.18 14.72 14.72 0 01-2.54-2.33 2.83 2.83 0 01-.18-3.3 4.2 4.2 0 01.89-1 2.88 2.88 0 001-2.28v-6.43a2.84 2.84 0 00-.6-1.73 15.25 15.25 0 01-4.74-1.78l-2.48 14.84c-2.47 2.47-12.34 2.83-12.34 2.83l10.23-19a.78.78 0 01-.57.17c-1.43 0-4.64-1.7-4.64-3.1l-12.16 13a29.81 29.81 0 01-3.61-.44 6.94 6.94 0 01-5.49-5l-.37-1.35 18.61-9.41s-1.91-3.11-.73-4.84l-18.8 5.35a39.65 39.65 0 01.68-5.69 38.77 38.77 0 011-4l17.34-1.39.45-5-15.3-.17a41.78 41.78 0 013.45-5.85c.73-1 1.51-2.06 2.33-3C69.34 75.77 74 77.42 74 77.42c4.57-8 6.9-8.69 6.9-5.62a23.33 23.33 0 00-2.66 10 12.22 12.22 0 004.82 9.92 15.7 15.7 0 0019.15.25c4.51-3.41 7.65-9.48 2.49-20.18 0-1.08.29-1.7.86-1.7 1.06 0 3.08 2.11 6 7.32 0 0 6.46-2.27 14.82-5.07.93 1 1.8 2.07 2.63 3.17a42 42 0 014.2 6.89l-19.91.13.46 5 22.1 1.78c.37 1.3.68 2.62.93 4 .11.64.21 1.27.3 1.91s0 1.17 0 1.77c0 1 0 1.94-.1 2.9l-22.68-6.46z" fill="#eaeaea"/></g></g></svg>