<svg xmlns="http://www.w3.org/2000/svg" viewBox="0 0 190 190"><defs><radialGradient id="radial-gradient" cx="93.06" cy="93.49" r="86.94" gradientUnits="userSpaceOnUse"><stop offset="0" stop-color="#595959"/><stop offset="1"/></radialGradient><style>.cls-3{fill:#feff04}.cls-4{fill:#a12f17}</style></defs><g id="Layer_2" data-name="Layer 2"><g id="Layer_1-2" data-name="Layer 1"><path opacity=".41" fill="url(#radial-gradient)" d="M6.12 6.55H180v173.88H6.12z"/><path d="M168.91 0H21.08A21.11 21.11 0 000 21.08v147.83A21.11 21.11 0 0021.08 190h147.83A21.11 21.11 0 00190 168.91V21.08A21.11 21.11 0 00168.91 0zM180 159.79L159.78 180H30.21L10 159.79V30.21L30.21 10h129.57L180 30.21z" fill="#5cc5ff"/><path class="cls-3" d="M101.14 114.27a6.17 6.17 0 00-12.31.6 6.14 6.14 0 002 4.57 2.47 2.47 0 01.84 1.83v5.3a1.87 1.87 0 001.87 1.86h2.88a1.85 1.85 0 001.85-1.85v-5.32a2.52 2.52 0 01.87-1.85 6.17 6.17 0 002-5.14zm0 0a6.17 6.17 0 00-12.31.6 6.14 6.14 0 002 4.57 2.47 2.47 0 01.84 1.83v5.3a1.87 1.87 0 001.87 1.86h2.88a1.85 1.85 0 001.85-1.85v-5.32a2.52 2.52 0 01.87-1.85 6.17 6.17 0 002-5.14zm0 0a6.17 6.17 0 00-12.31.6 6.14 6.14 0 002 4.57 2.47 2.47 0 01.84 1.83v5.3a1.87 1.87 0 001.87 1.86h2.88a1.85 1.85 0 001.85-1.85v-5.32a2.52 2.52 0 01.87-1.85 6.17 6.17 0 002-5.14z"/><path class="cls-3" d="M131.72 92.87h-4V79.33a32.25 32.25 0 10-64.5 0v13.54h-5a4.9 4.9 0 00-4.88 4.9V138a4.89 4.89 0 004.88 4.9h73.45a4.89 4.89 0 004.89-4.9V97.77a4.9 4.9 0 00-4.84-4.9zM95 133a15.07 15.07 0 1115.06-15.06A15.07 15.07 0 0195 133zm17-40.13H79.08V77.22a16.44 16.44 0 1132.87 0z"/><path class="cls-4" d="M82 99.06a.31.31 0 00-.15.1z"/><path d="M82.17 97.63h-.14" fill="none"/><path class="cls-4" d="M82.17 99.16a.28.28 0 00-.14-.1z"/></g></g></svg>