<svg xmlns="http://www.w3.org/2000/svg" viewBox="0 0 190 190"><defs><radialGradient id="radial-gradient" cx="93.06" cy="93.49" r="86.94" gradientUnits="userSpaceOnUse"><stop offset="0" stop-color="#595959"/><stop offset="1"/></radialGradient><style>.cls-4{fill:#072556}</style></defs><g id="Layer_2" data-name="Layer 2"><g id="Layer_1-2" data-name="Layer 1"><path opacity=".41" fill="url(#radial-gradient)" d="M6.12 6.55H180v173.88H6.12z"/><path d="M168.91 0H21.08A21.11 21.11 0 000 21.08v147.83A21.11 21.11 0 0021.08 190h147.83A21.11 21.11 0 00190 168.91V21.08A21.11 21.11 0 00168.91 0zM180 159.79L159.78 180H30.21L10 159.79V30.21L30.21 10h129.57L180 30.21z" fill="#5cc5ff"/><path d="M102.29 149.75a21.09 21.09 0 01-1.54 6.54 51.42 51.42 0 01-6 11c-.09.13-.18.23-.25.33l-.25-.33a51.07 51.07 0 01-6-11 20.8 20.8 0 01-1.53-6.54c-.67-9.82-1.63-40.51-.76-57.79l2.18-1.72-.31-20.15L89 68a10.82 10.82 0 00.6 3.14c.07.2.13.39.21.6a11.43 11.43 0 00.89 1.84c.09.16.19.33.31.51s.22.33.35.51a6 6 0 00.4.52 16 16 0 002.1 2.24l.06.08 1 .73.83-.54.28-.19.06-.08a16.57 16.57 0 002.1-2.24 4.4 4.4 0 00.39-.52 5.88 5.88 0 00.35-.51c.12-.18.22-.35.31-.51a10.64 10.64 0 00.89-1.84c.09-.21.15-.4.22-.6s.13-.38.18-.57a8.09 8.09 0 00.24-1.1 3.12 3.12 0 00.11-.61A6.49 6.49 0 00101 68l1.14 2.09-.3 20.15L104 92c.89 17.24-1 47.93-1.71 57.75z" fill="#00e2ff"/><path class="cls-4" d="M65.41 70a30.69 30.69 0 0013.81-9.88l2.8-3.8c3.16 3.24 5.89 3.83 5.89 3.83l-1.45-3.7 5.15-3.39V38.34l-.75-.87L91 37l-3.45-3.4.81-4c-1.45-1.69-1.18-2.32-1.18-2.32l-1.76-2.18 3.21-2.73 3.2 1.74h3.3v.05h3l3.2-1.75 3.21 2.74-1.76 2.17s.26.63-1.18 2.32l.81 4L99 37l.15.53-.74.87v14.71l5.15 3.4-1.45 3.7a13.29 13.29 0 005.89-3.82l2.8 3.8a30.69 30.69 0 0013.81 9.88s-11.39 4.37-14.5 4.13c0 0-2.84-2.22-4-8.44l-2.29.33.74 1.17-2.45 2.88-3.25-3.59L95 62.7l-3.84 3.81-3.25 3.58-2.45-2.87.74-1.17-2.29-.32c-1.14 6.2-4 8.43-4 8.43-3.12.24-14.5-4.16-14.5-4.16z"/><path class="cls-4" d="M90.68 65.33L95 62.68l4.3 2.65s1.7 5.81-4.3 11h-.08c-5.92-5.19-4.24-11-4.24-11z"/></g></g></svg>