<svg xmlns="http://www.w3.org/2000/svg" viewBox="0 0 190 190"><defs><radialGradient id="radial-gradient" cx="93.06" cy="93.49" r="86.94" gradientUnits="userSpaceOnUse"><stop offset="0" stop-color="#595959"/><stop offset="1"/></radialGradient><style>.cls-3{fill:#feff04}</style></defs><g id="Layer_2" data-name="Layer 2"><g id="Layer_1-2" data-name="Layer 1"><path opacity=".41" fill="url(#radial-gradient)" d="M6.12 6.55H180v173.88H6.12z"/><path d="M168.91 0H21.08A21.11 21.11 0 000 21.08v147.83A21.11 21.11 0 0021.08 190h147.83A21.11 21.11 0 00190 168.91V21.08A21.11 21.11 0 00168.91 0zM180 159.79L159.78 180H30.21L10 159.79V30.21L30.21 10h129.57L180 30.21z" fill="#5cc5ff"/><path class="cls-3" d="M159.94 90.08a33.74 33.74 0 01-2.19 7.86 30.68 30.68 0 01-5.72 9 9.06 9.06 0 01-1.62 1.41 2.48 2.48 0 01-3.64-.28c-2-2.07-4-4.25-5.93-6.36a27.43 27.43 0 00-2-1.91 2.55 2.55 0 00-3.26-.2c-2.09 1.23-2.25 1.18-3.37-1-2.18-4.18-7.49-7.19-11.89-6.65a12.17 12.17 0 00-7.94 4.74 20.72 20.72 0 00-3.2 6c-.32.86-.63 1.73-1 2.57-.26.59-.49 1.46-1.25 1.31a2.25 2.25 0 01-1.31-1.29c-.73-1.95-1.31-4-2-6 0-.1 0-.22-.11-.6a7 7 0 00-1.06 4c.07 1.54 0 3.09.06 4.63 0 1.17.12 2.34.26 3.5s-.15 1.39-1.16 1a16.37 16.37 0 00-5.83-1.39H94.6l.79.48a3.75 3.75 0 012.08 3.07 37.88 37.88 0 01.21 4.38c-.15 2.64-1.08 3.64-3.66 4.28l-1 .23c.8.35 1.44.63 2.07.93a2.34 2.34 0 011.41 2 34.74 34.74 0 01-.81 10.61c-.11.59-.27 1.17-.42 1.75a1.86 1.86 0 01-2.07 1.66l-.89.07c.78.64 1.43 1.2 2.11 1.71a1.9 1.9 0 01.76 1.89 16.69 16.69 0 01-2.67 7.47c-.89 1.35-1.57 1.35-2.44 0a17.28 17.28 0 01-2.61-7.33 2.29 2.29 0 011.05-2.36c.6-.42 1.16-.91 1.74-1.38-.09-.07-.12-.12-.17-.13-2.13-.1-2.41-.3-2.89-2.39A42.09 42.09 0 0186 126.62a3.32 3.32 0 012.58-3.47c.3-.09.58-.23 1-.39-.82-.26-1.54-.45-2.24-.7a2.66 2.66 0 01-2-2.5 42.94 42.94 0 010-5.32 4.45 4.45 0 013.24-3.78l-.06-.2a13.59 13.59 0 00-2.31.22c-1.24.33-2.45.78-3.67 1.21s-1.45.15-1.21-1a22.78 22.78 0 00.22-7.46 9.4 9.4 0 011.59-6c.65-1.08 1.44-2.07 2.18-3.09a6.67 6.67 0 001.62-3.56 22.13 22.13 0 00-5.43 5.83c-1.37 2.3-2.45 4.76-3.76 7.35a15.27 15.27 0 01-.41-2.06c-.27-4.79-.5-9.58-.75-14.36a6.72 6.72 0 00-.2-1.27 16.22 16.22 0 01-.11-9.26 7.48 7.48 0 012.91-4.05A6.39 6.39 0 0082 67.73c.13-1.49.26-3 .27-4.47 0-1.89-.57-2.49-2.45-2.74-1.14-.16-1.59-.61-1.55-1.56s.5-1.38 1.62-1.5c.79-.09 1.84 0 2.3-.43s.26-1.49.29-2.27a34.16 34.16 0 01.75-8.13A9.83 9.83 0 0195 39.35c4.47 1.13 8 5.53 7.9 9.73 0 2.06.15 4.13.24 6.28h10.37c.13-1.29.25-2.62.4-4 .26-2.19.39-4.42 1.4-6.44 1.58-3.14 3.94-5.36 7.52-5.78 4-.46 6.71 1.63 8.68 4.8 1.54 2.51 1.83 5.41 2 8.29v1.29c.9 0 1.73-.12 2.55-.09a3.46 3.46 0 011 .44 4.5 4.5 0 01-.44 1c-.36.44-.79.83-1.19 1.25a10.39 10.39 0 00-2.81 6.15 2.61 2.61 0 01-.14.85c-.17.39-.37.95-.68 1a1.53 1.53 0 01-1.17-.47c-.8-.75-1.49-1.6-2.27-2.36a13.76 13.76 0 00-8.5-3.94 5.31 5.31 0 00-1.54.1c-1 .2-1.28.68-1.21 1.66.08 1.32-.39 1.81-1.71 1.65-1-.12-1.92-.35-2.89-.47a3.23 3.23 0 00-1.35.09 1.38 1.38 0 00-.94 1.49 1.11 1.11 0 001.08 1.14c.73.09 1.48 0 2.23.08a71.59 71.59 0 019.17.68c4.63.93 8.28 3.71 11.31 7.28a42 42 0 018.57 17 1.31 1.31 0 001.47 1.21c5 .19 10.1.46 15.15.71zM47.19 85.71c-1.21.09-1.5.43-1.29 1.4a1.56 1.56 0 01-.86 2 1.77 1.77 0 01-2.34-.37 13.34 13.34 0 01-1-2.23c-.3-.7-.58-1.41-.89-2.11a14.27 14.27 0 01-.66-1.29c-.41-1.26-.11-2.16.82-2.6a2.29 2.29 0 012.88.81c.22.28.87.6 1 .51.43-.38 1.08-1 1-1.38a50.34 50.34 0 01-.94-9.94 1.05 1.05 0 00-.06-.24c-1-.13-1.36.09-1.51 1.11a1.8 1.8 0 01-1.08 1.53c-1.58.7-2.86-.37-2.58-2.29a8.34 8.34 0 00-.13-3.3c-.43-1.81.77-3.26 2.36-3a1.54 1.54 0 011.43 1.18c.11.4.14 1 .77.8s1-.34 1.09-1c.35-2.44.72-4.88 1.14-7.31a29 29 0 01.9-3.68 4.66 4.66 0 015.62-3.35 3.78 3.78 0 013 2.79c.6 2.07 1 4.18 1.52 6.27.45 1.9.9 3.8 1.39 5.69a35 35 0 0010.15 16.68 11.66 11.66 0 001.65 1.24A5.91 5.91 0 0173.35 89c0 1.07-.11 2.13-.14 3.19a1.61 1.61 0 01-1.31 1.6 3.21 3.21 0 01-3-.47 27.2 27.2 0 01-3.19-2.87c-4.64-5-8.51-10.38-10.62-16.93-.68-2.1-1.47-4.17-2.23-6.24a10.43 10.43 0 00-.74-1.28h-.31a16 16 0 00-.33 2c-.26 9.74 2.67 18.36 9.3 25.54 2.94 3.18 6.16 6.11 9.34 9a38.06 38.06 0 003.92 2.8 10.8 10.8 0 011.43 1.09 2.24 2.24 0 01.63 2.67c-1.52 3.29-3.58 4.91-7 3.47-.53-.22-1.06-.46-1.57-.72-.87-.44-1.47-.21-2.46 1-.59.72-.57 1.15.12 2a2.09 2.09 0 010 2.89 1.89 1.89 0 01-2.74.47 15.31 15.31 0 01-1.67-1.46l-2.09-1.73a12.55 12.55 0 01-1.75-1.48 2.36 2.36 0 013-3.52c.91.46 1.24.28 1.56-.71a2.15 2.15 0 00-.68-2.52 80.84 80.84 0 01-5.51-6c-.74-.87-1.26-.28-1.85 0s-1.07.75-.75 1.58c.48 1.21.31 1.93-.54 2.59a1.67 1.67 0 01-2.4-.15 13.29 13.29 0 01-1.07-1.74c-.42-.67-.86-1.33-1.28-2a10.77 10.77 0 01-1.07-1.73 2.06 2.06 0 013.41-2.16c.65.59.91.54 1.42-.18a1.88 1.88 0 00.08-2.24c-1.35-2.71-2.51-5.52-3.75-8.3-.14-.24-.23-.46-.32-.75z"/><path class="cls-3" d="M125.4 110.51c.15.27.17.36.23.41 2.05 1.64 2.36 3.9 2.26 6.3 0 .86-.15 1.71-.24 2.57a2.54 2.54 0 01-1.75 2.21c-.77.29-1.56.53-2.41.81.71.33 1.38.62 2 .93a2.25 2.25 0 011.32 1.87 31.5 31.5 0 01-.47 9.09c-.18 1.07-.43 2.14-.69 3.2-.34 1.4-.82 1.76-2.28 1.84h-.8c.82.66 1.45 1.22 2.13 1.72a1.9 1.9 0 01.82 1.87 16.57 16.57 0 01-2.79 7.69c-.81 1.16-1.44 1.15-2.24 0a17.19 17.19 0 01-2.7-7.46 2.22 2.22 0 011-2.31c.62-.43 1.2-.94 1.84-1.45-2.62-.44-2.64-.44-3.23-3.1a40.81 40.81 0 01-1-10 3.36 3.36 0 012.59-3.56 7.68 7.68 0 00.79-.32l.08-.07c-.85-.3-1.7-.56-2.52-.88a2.3 2.3 0 01-1.58-2.08c-.08-1.8-.16-3.6-.1-5.4a4.25 4.25 0 011.61-3 6.36 6.36 0 01.85-.58l-.19-.33a5.52 5.52 0 00-1.14-.06c-1.64.28-3.27.61-4.9.93-.31.06-.6.18-.91.25-1.15.27-1.31 0-1-1.11.55-2.35 1.16-4.69 1.52-7.06a10.07 10.07 0 0110.3-8.5c5 .27 9.77 4 10.58 8.61a43.53 43.53 0 01.39 6.95c0 1.29-.49 1.48-1.75 1.12-1.48-.41-3-.72-4.5-1.06a6.12 6.12 0 00-1.12-.04zM44.58 39c.22-1.27.37-2.55.7-3.79a5 5 0 013.5-3.6c4.22-1.35 8 .84 8.73 5.19a18.83 18.83 0 01.12 4.44 5.64 5.64 0 01-1.72 3.38 22.07 22.07 0 00-2.13 2.69c-1.37 2-3.5 2-4.93.1-.75-1-1.56-2-2.38-2.94A9.08 9.08 0 0144.58 39zm27.89-8.65c-.13.86-.2 1.64-.39 2.39-.83 3.31-1.71 6.61-2.53 9.92a4.38 4.38 0 01-2.36 3 31.78 31.78 0 01-3.37 1.51 2.38 2.38 0 01-3.16-2.73 1.21 1.21 0 011.06-1.18c2-.26 3.43-2.39 3.21-4.72-.08-.92-.46-1.24-1.39-1.27s-1.72-.06-2.57-.16a1.32 1.32 0 01-1.34-1.48 2.44 2.44 0 011-2.18l6.76-4.9c.4-.29.81-.54 1.23-.79 1.67-1 2.85-.56 3.52 1.24a9.64 9.64 0 01.33 1.35zm-42.41-.1a10.39 10.39 0 01.36-1.32c.71-1.72 1.83-2.16 3.4-1.17 1.81 1.15 3.53 2.46 5.28 3.7.89.63 1.77 1.28 2.67 1.9a2.53 2.53 0 011.07 2.55 1.2 1.2 0 01-1.14 1.2c-.91.09-1.83.17-2.75.17a1.21 1.21 0 00-1.34 1 4.28 4.28 0 002.78 4.85c1.33.38 1.65.88 1.41 2.16s-1.29 2.28-2.37 2A11.64 11.64 0 0134 44.61a2.65 2.65 0 01-.74-1.23c-1-4-2-8.06-3-12.09a8.62 8.62 0 01-.2-1.04zm91.85 122.86c1.4.23 2.68.35 3.92.67s1.59.93 1.28 2.13a11.61 11.61 0 01-4.44 6.55 1.25 1.25 0 01-1.67 0 14.19 14.19 0 01-4.64-6.78c-.3-1-.06-1.45.92-1.68 1.55-.4 3.13-.62 4.63-.89zm-30.43 0c1.37.23 2.63.35 3.84.66s1.6.92 1.3 2.11a11.56 11.56 0 01-4.41 6.57 1.29 1.29 0 01-1.74 0 14.22 14.22 0 01-4.58-6.72c-.31-1-.07-1.49 1-1.73 1.51-.42 3.11-.62 4.59-.89z"/></g></g></svg>